<svg width="1432" height="1969" viewBox="0 0 1432 1969" fill="none" xmlns="http://www.w3.org/2000/svg">
<path d="M1011.3 1342.63C993.583 1332.02 975.838 1321.41 958.12 1310.8C922.577 1289.53 892.957 1263.36 875.946 1226.58C874.804 1224.09 872.359 1220.62 870.103 1220.34C857.766 1218.76 845.293 1218.05 831.054 1216.87C836.652 1234.7 841.38 1250.71 846.706 1266.53C854.587 1289.96 855.782 1313.87 856.543 1338.3C857.549 1370.53 797.249 1403.92 765.129 1379.1C757.874 1373.5 750.21 1368.32 741.216 1361.86C729.286 1372.74 717.846 1383.83 705.59 1394.11C698.308 1400.22 690.291 1405.98 681.677 1410.33C661.65 1420.41 649.693 1416.24 633.416 1395.65C624.693 1405.35 617.111 1416.79 606.486 1424.81C595.317 1433.23 584.23 1428.51 571.105 1412.77C561.268 1430.01 551.866 1448.77 526.404 1446.36C508.659 1444.67 502.463 1431.82 501.213 1416.79C481.376 1420.56 471.593 1430.89 473.387 1447.86C475.696 1469.69 469.691 1488.09 452.435 1503.65C427.544 1526.1 404.283 1550.06 373.358 1566.12C337.896 1584.53 292.162 1587.09 263.602 1557.98C248.873 1542.99 242.351 1525.35 241.319 1505.54C241.101 1501.36 240.938 1497.16 240.938 1492.97C240.911 1462.77 238.846 1460.36 205.992 1454.38C203.492 1453.92 199.226 1454.73 198.03 1456.36C180.802 1479.59 163.981 1503.07 145.992 1528.01C172.296 1535.55 192.623 1533.34 210.585 1518.84C220.938 1537.36 220.068 1546.41 205.177 1560.32C175.611 1587.95 141.481 1608.36 99.1703 1614.7C94.1703 1615.45 84.8495 1614.62 84.1702 1612.61C81.2625 1604.11 77.0505 1593.3 80.393 1586.21C87.1593 1571.93 98.5725 1559.54 108.056 1546.39C83.0832 1530.32 48.0556 1536.71 30.175 1559.94C16.6966 1577.46 16.452 1577.64 30.3652 1594.23C75.2842 1647.76 120.312 1701.2 165.475 1754.53C179.579 1771.17 180.394 1772.2 180.856 1791.31C156.725 1774.11 133.437 1757.52 110.149 1740.93C110.828 1739.84 111.507 1738.74 112.187 1737.66C117.459 1738.86 122.703 1740.05 127.975 1741.25C128.736 1740.6 129.497 1739.92 130.258 1739.27C119.415 1726.55 108.41 1713.93 97.7573 1701.05C70.5831 1668.19 42.349 1636.01 16.914 1602.02C-2.16233 1576.53 1.72358 1550.64 23.7347 1527.43C38.8164 1511.52 57.784 1506.09 80.0397 1511.09C87.4854 1512.78 94.8225 1514.86 102.105 1517.05C121.643 1522.93 121.779 1523.06 132.051 1507.2C145.665 1486.13 159.035 1464.93 173.111 1442.86C146.644 1430.06 120.774 1417.57 93.5996 1404.45C90.4202 1416.79 87.9202 1428.81 84.1702 1440.47C79.4147 1455.31 70.9363 1467.77 55.2568 1475.19C34.2783 1485.1 14.577 1478.64 1.23444 1456.76C7.34864 1456.76 13.3541 1457.39 19.1694 1456.66C40.5284 1453.95 54.0883 1442.13 61.7243 1424.03C72.1592 1399.32 71.1265 1377.29 46.5611 1359.02C31.1533 1347.53 17.4575 1334.08 3.00077 1321.51C4.03339 1320.43 5.09318 1319.35 6.1258 1318.26C25.5826 1331.06 45.0393 1343.88 68.2461 1359.17C67.5667 1345.77 67.1591 1335.31 66.4798 1324.88C65.5558 1310.7 63.7895 1296.54 63.4906 1282.36C62.4308 1235.7 104.361 1226.23 139.443 1241.33C158.573 1249.58 170.367 1264.24 177.595 1281.81C184.443 1298.43 189.688 1315.6 195.965 1333.45C217.568 1326.51 234.009 1313.69 248.085 1298.45C275.776 1268.46 293.167 1233.21 307.379 1196.38C310.776 1187.58 309.118 1182.36 299.743 1178.48C274.145 1167.92 258.275 1149.67 251.183 1124.63C245.721 1105.3 253.221 1096.65 274.661 1097.88C303.765 1099.57 337.706 1130.64 338.793 1159.13C339.309 1172.88 346.891 1172.27 356.13 1170.39C374.472 1166.67 388.929 1156.61 395.804 1140.77C404.581 1120.61 410.56 1099.39 417.978 1078C386.782 1074.83 366.646 1081.47 351.619 1102.11C341.347 1088.25 336.619 1075.66 347.298 1059.09C371.456 1021.53 403.984 993.45 447.517 974.997C457.435 987.668 466.81 998.83 456.158 1015.65C450.207 1025.03 448.685 1036.79 445.207 1047.4C472.245 1056.38 497.979 1048.46 505.289 1031.59C513.441 1012.78 515.806 991.841 520.724 971.703C520.806 971.779 522.735 972.684 523.795 974.142C530.969 984.022 539.474 990.559 553.197 984.953C564.23 980.427 571.649 966.701 569.366 954.507C568.116 947.946 566.268 941.46 564.638 934.948C563.143 928.965 561.567 923.006 562.056 916.093C565.562 920.015 568.415 924.766 572.708 927.683C583.497 934.973 605.182 928.688 609.557 916.973C610.426 914.61 608.279 909.405 605.942 908.224C590.589 900.531 590.209 900.506 583.66 879.413C591.785 883.259 599.23 884.818 603.361 889.117C612.247 898.419 621.948 908.249 626.432 919.537C629.394 926.979 625.834 938.216 621.622 946.085C616.459 955.714 605.073 958.404 593.497 957.449C590.073 957.172 586.73 955.94 581.73 954.734C583.225 961.144 585.752 966.349 585.317 971.352C584.448 981.408 584.475 992.595 579.583 1001.09C570.996 1016.05 558.061 1016.2 533.741 1003.81C533.306 1009.29 532.925 1014.04 532.572 1018.79C531.132 1037.6 527.056 1055.32 509.8 1067.84C494.664 1078.83 476.838 1078.55 459.256 1077.29C436.321 1075.63 440.343 1074.13 434.772 1095.14C429.201 1116.14 424.419 1137.56 416.049 1157.64C402.842 1189.29 377.788 1200.83 342.787 1192.99C333.113 1190.83 331.972 1195.13 330.097 1201.01C318.494 1237.26 302.923 1271.88 280.069 1303.43C261.074 1329.63 238.737 1352.13 204.199 1360.85C165.448 1370.63 119.796 1340.89 116.997 1301.5C133.899 1328.12 155.448 1342.7 190.041 1335.23C180.014 1308.89 174.986 1281.13 153.872 1259.46C142.703 1248 129.932 1241.66 113.111 1246.74C96.2627 1251.84 90.5561 1265.57 90.3116 1279.32C89.7952 1309.36 91.8333 1339.43 93.2464 1369.48C93.3822 1372.24 95.991 1376.01 98.654 1377.42C128.274 1393.21 158.138 1408.64 187.84 1424.13C243.112 1364.42 304.934 1319.12 388.657 1310.04C386.701 1296.22 381.565 1282.14 383.467 1268.89C388.25 1235.35 401.511 1204.03 424.446 1177.25C446.566 1151.43 479.881 1147.69 509.148 1166.16C513.903 1169.18 518.632 1172.25 524.719 1176.2C534.067 1157.27 542.871 1139.09 551.947 1121.01C566.975 1091.1 583.605 1061.76 596.622 1031.09C602.328 1017.66 610.807 1009.92 624.992 1002.85C617.899 1031.81 619.557 1060.85 604.149 1086.82C603.062 1081.84 601.948 1076.87 599.991 1067.97C594.964 1076.72 591.567 1081.87 588.904 1087.35C572.871 1120.51 556.784 1153.67 541.404 1187.11C539.474 1191.33 540.643 1197.41 542.056 1202.22C546.458 1217.07 551.676 1231.76 556.567 1246.49C555.48 1246.79 554.42 1247.07 553.333 1247.37C547.355 1234.27 541.376 1221.15 535.425 1208.05C534.121 1208 532.817 1207.97 531.539 1207.92C509.664 1245.78 493.088 1287.32 452.734 1312.46C451.539 1311.75 450.343 1311.02 449.147 1310.32C455.533 1300.19 462.3 1290.23 468.251 1279.9C483.495 1253.35 498.305 1226.55 513.496 1199.98C517.653 1192.69 515.833 1188.74 507.517 1185.62C486.186 1177.63 465.588 1179.04 449.962 1194.4C436.892 1207.24 426.511 1222.81 417.054 1238.27C410.478 1249.03 407.299 1261.6 402.951 1273.46C393.983 1297.93 395.315 1301.67 418.495 1317.03C424.745 1321.16 430.968 1325.96 438.033 1328.25C455.642 1334 456.077 1347.83 460.098 1363.67C447.653 1357.56 437.788 1352.81 428.006 1347.93C408.087 1338.02 386.837 1337.6 365.994 1342.95C311.51 1356.93 265.83 1384.61 227.351 1422.67C225.829 1424.18 224.525 1425.97 223.329 1427.73C222.378 1429.11 221.753 1430.67 219.96 1434.06C247.868 1444.14 274.77 1456.84 305.504 1449.05C323.711 1444.42 340.505 1445.3 358.032 1450.75C381.184 1457.97 387.38 1472.98 373.087 1491.31C361.402 1506.32 347.353 1518.13 325.45 1518.51C317.434 1518.63 312.406 1516.77 310.885 1509.13C307.705 1492.94 304.444 1476.78 300.993 1459.43C285.586 1461.79 267.297 1464.58 248.9 1467.42C242.868 1496.64 255.64 1528.16 279.96 1542.04C302.08 1554.69 326.564 1555.06 348.983 1545.76C370.559 1536.84 390.858 1524.42 409.717 1511.09C426.103 1499.5 439.229 1484.09 454.609 1471.17C466.403 1461.29 463.631 1452.84 454.5 1444.04C432.462 1446.73 408.603 1463.88 390.886 1438.23C381.375 1424.48 389.772 1397.18 404.092 1386.72C419.201 1375.71 426.756 1378.33 463.93 1407.71C478.224 1399.22 492.816 1390.54 509.99 1380.34C509.99 1387.02 509.963 1390.92 509.99 1394.82C510.126 1413.72 528.659 1424.18 545.371 1413.45C554.203 1407.79 560.371 1398.29 566.92 1389.94C571.486 1384.11 574.665 1377.32 581.105 1371.96C581.105 1375.13 580.535 1378.4 581.241 1381.42C582.464 1386.62 583.007 1394.59 586.486 1396.1C592.111 1398.51 601.649 1398.97 606.404 1396C613.769 1391.37 618.959 1383.43 624.204 1376.36C627.926 1371.34 630.236 1365.43 634.204 1357.94C636.486 1361.96 637.818 1363.84 638.687 1365.88C646.976 1385.49 665.345 1391.67 684.259 1379.73C697.166 1371.56 708.471 1361.2 720.319 1351.95C707.601 1334.63 682.574 1329.78 655.4 1338.13C652.764 1315.73 655.073 1311.4 675.182 1301.37C715.455 1281.26 758.254 1277.56 802.82 1283.95C811.407 1285.18 813.092 1289 812.331 1295.81C811.081 1307.2 808.934 1316.93 795.075 1322.41C783.363 1327.04 773.336 1335.39 762.547 1342.1C773.091 1356 791.787 1362.74 808.282 1358.29C815.945 1356.23 823.173 1352.43 830.32 1348.96C843.228 1342.68 847.141 1334.05 842.467 1320.15C831.271 1286.71 822.005 1252.72 811.461 1219.11C810.238 1215.21 806.597 1210.91 802.793 1208.95C782.901 1198.77 762.602 1189.29 743.825 1180.24C736.895 1193.69 731.27 1209.28 721.623 1222.35C703.579 1246.92 673.335 1255.59 642.682 1247.02C618.633 1240.3 606.214 1223.38 600.073 1202.09C592.056 1174.21 598.442 1148.89 617.627 1126.04C609.04 1163.6 621.595 1196.81 640.399 1229.02C645.644 1237.99 651.188 1239.57 660.807 1234.85C691.324 1219.94 708.498 1196.46 710.645 1165.08C711.324 1155.2 706.786 1143.51 700.753 1135.02C683.009 1110.03 682.248 1110.48 660.698 1105.22C664.612 1103.46 667.655 1102.08 671.296 1100.42C663.389 1089.91 656.106 1080.21 647.628 1068.97C665.427 1068.49 678.769 1069.1 687.818 1083.93C697.954 1100.52 701.84 1101.05 720.726 1093.56C728.498 1090.47 736.134 1086.32 742.52 1081.24C756.624 1070.08 755.455 1060 739.259 1051.9C730.183 1047.38 720.427 1043.96 710.753 1040.54C688.742 1032.72 666.758 1024.95 650.535 1008.06C647.247 1004.64 644.041 1001.04 641.568 997.095C631.894 981.735 633.579 977.737 650.182 968.511C659.394 963.382 668.552 957.625 676.133 950.661C695.509 932.836 693.933 906.188 673.09 889.922C662.057 881.324 650.372 873.429 639.177 865.007C637.193 863.499 636.079 861.01 633.905 858.069C637.22 856.787 639.774 855.328 642.546 854.775C667.601 849.797 678.688 833.808 671.188 811.408C663.144 787.374 644.394 769.775 628.28 750.669C627.057 750.945 625.834 751.222 624.638 751.498C622.519 787.65 620.399 823.777 618.035 863.65C605.29 857.516 590.942 854.298 582.79 845.901C563.551 826.165 547.219 804.017 529.827 782.748C527.192 779.505 525.235 775.784 524.827 775.13C510.914 777.242 499.012 781.667 488.061 780.184C465.397 777.142 457.164 762.937 466.566 743.554C472.734 730.833 482.436 719.469 491.457 708.081C500.506 696.667 513.441 702.349 524.039 704.913C528.768 706.044 531.73 714.29 534.991 719.595C536.485 722.059 537.11 725.151 537.463 728.017C538.904 739.557 543.795 747.099 559.23 745.314C555.398 748.23 551.54 751.121 544.991 756.099C557.926 777.318 570.969 798.762 584.013 820.207C585.67 819.679 587.328 819.151 588.986 818.623C596.16 755.772 599.991 692.846 591.404 629.768C612.383 627.983 621.839 634.721 621.948 651.012C622.193 690.13 636.568 724.548 661.487 755.672C672.248 769.122 682.438 782.949 692.954 796.525C713.444 822.973 707.031 852.563 671.351 861.412C670.59 861.588 670.046 862.468 667.954 864.278C676.867 870.488 685.373 876.497 693.96 882.379C734.178 910.034 726.569 953.376 688.471 971.05C663.063 982.841 661.785 993.375 684.612 1010.5C698.933 1021.23 717.248 1027.49 734.015 1035.31C742.846 1039.43 752.71 1041.74 761.243 1046.27C779.912 1056.13 781.406 1071.66 763.879 1083.03C751.895 1090.79 737.846 1095.85 724.558 1101.81C719.802 1103.94 714.612 1105.25 707.601 1107.61C734.232 1141.25 761.053 1172.48 799.396 1194.72C800.483 1192.06 801.543 1190.83 801.298 1189.92C794.885 1167.37 790.211 1144.17 781.108 1122.57C775.564 1109.42 779.151 1099.27 783.798 1084.06C800.184 1110.65 814.939 1134.61 829.695 1158.57C828.391 1159.4 827.086 1160.26 825.782 1161.09C821.733 1158.25 817.711 1155.4 813.662 1152.56C812.548 1153.02 811.461 1153.47 810.347 1153.9C815.673 1170.31 820.157 1187.06 826.923 1202.95C828.472 1206.57 837.603 1208.17 843.527 1209.28C851.76 1210.79 860.293 1210.89 870.565 1211.77C868.147 1186.48 871.462 1163.68 891.707 1147.13C905.783 1135.59 923.663 1130.84 943.093 1130.11C921.028 1138.79 903.636 1151.46 900.294 1174.61C898.989 1183.71 900.756 1193.17 901.218 1204.68C931.816 1195.25 950.022 1178.56 958.881 1153.82C974.941 1108.97 972.142 1063.01 965.593 1017.16C961.762 990.333 956.571 963.659 953.528 936.331C960.267 951.139 966.001 966.399 973.909 980.654C1003.15 1033.32 1007.06 1088.88 994.452 1145.5C985.757 1184.52 959.072 1209.41 915.62 1217.12C913.473 1217.5 911.544 1218.81 907.984 1220.34C925.62 1257.78 957.604 1281.71 992.278 1303.53C1002.09 1293.02 1008.58 1272.21 1003.23 1266.93C993.909 1257.68 983.42 1249.46 974.914 1239.05C984.751 1245.81 994.615 1252.6 1006.54 1260.82C1008.83 1251.67 1011.25 1244.7 1012.2 1237.56C1018.12 1193.19 1023.77 1148.79 1029.43 1104.37C1034.56 1064.09 1039.97 1023.84 1044.48 983.52C1046.03 969.642 1046.3 955.915 1063.23 945.256C1067.47 973.866 1071.49 1001.14 1075.54 1028.42C1074.24 1028.65 1072.96 1028.85 1071.65 1029.07C1068.75 1025.05 1065.87 1021.03 1060.54 1013.69C1058.15 1027.89 1055.81 1038.65 1054.62 1049.54C1050.81 1084.03 1048.45 1118.67 1043.58 1153.02C1038.56 1188.54 1031.74 1223.89 1024.67 1259.11C1022.82 1268.39 1024.02 1274.02 1033.61 1278.01C1044.21 1282.44 1054.4 1287.64 1065.59 1292.92C1067.93 1288.35 1069.45 1284.98 1071.3 1281.76C1078.07 1269.97 1101.17 1268.21 1109.26 1279.37C1111.03 1281.81 1109.78 1287.09 1108.18 1290.31C1107.14 1292.4 1103.07 1293.73 1100.11 1294.38C1089.1 1296.79 1077.09 1296.59 1069.7 1306.93C1068.67 1308.38 1064.78 1308.11 1060.68 1308.94C1061.98 1304.01 1062.99 1300.24 1063.91 1296.74C1051.14 1291.19 1038.77 1285.36 1025.92 1280.6C1023.2 1279.6 1017.33 1281.51 1015.38 1283.82C1009.94 1290.31 1005.78 1297.75 1000.16 1306.25C1025.59 1320.33 1051.19 1334.51 1077.69 1349.16C1071.03 1356.5 1065.68 1361.58 1061.33 1367.31C1051.22 1380.66 1052.41 1390.54 1064.83 1402.01C1076.22 1412.52 1126.9 1434.77 1146.74 1437.3C1128.53 1404.52 1110.87 1372.74 1093.23 1340.94C1109.59 1331.82 1120.92 1332.44 1133.69 1344.26C1144.89 1354.62 1155.81 1365.25 1166.11 1376.34C1172.66 1383.38 1178.39 1383.28 1185.43 1377.52C1190.79 1373.12 1196.52 1369.12 1201.38 1365.48C1190.62 1341.9 1180.51 1319.24 1169.73 1296.87C1168.53 1294.41 1163.53 1293.1 1160.02 1292.12C1155.46 1290.84 1150.62 1290.43 1143.2 1289.2C1149.21 1286.74 1152.31 1284.85 1155.73 1284.17C1164.26 1282.51 1166.11 1278.17 1164.73 1270.52C1162.8 1259.89 1162.25 1249.05 1160.84 1235.58C1143.34 1238.57 1126.27 1241.28 1109.32 1244.48C1083.34 1249.38 1065.68 1240.78 1061.33 1217C1059.53 1207.19 1063.28 1193.84 1069.86 1185.9C1099.56 1150.15 1137.8 1122.47 1176.38 1095.42C1189.73 1086.07 1203.2 1076.89 1216.82 1067.89C1220.68 1065.35 1225.24 1063.72 1229.97 1061.43C1238.69 1075.23 1244.05 1086.37 1235.87 1102.79C1218.88 1136.83 1205.54 1172.42 1190.87 1207.45C1186.9 1216.92 1185.76 1225.9 1197.39 1232.33C1200.11 1233.84 1201.36 1237.59 1204.35 1241.86C1196.87 1240.78 1191.33 1239.95 1183.53 1238.82C1182.5 1249.76 1181.52 1260.06 1180.54 1270.4C1181.98 1271.33 1183.45 1272.23 1184.89 1273.16C1200.57 1261.75 1216.6 1250.74 1231.82 1238.82C1255.24 1220.49 1276.87 1199.98 1301.49 1183.19C1338.99 1157.59 1375.92 1165.94 1403.23 1201.01C1443.86 1253.23 1434.19 1349.46 1388.53 1395.67C1356.39 1428.18 1302.34 1436.63 1261.03 1413.47C1247.31 1405.78 1234.89 1395.62 1223.4 1385.14C1216.11 1378.53 1211.06 1378.3 1202.55 1382.55C1189.59 1389.04 1175.68 1393.91 1160.73 1400.07C1179.56 1444.57 1212.06 1481.88 1244.62 1521.22C1235.41 1523.91 1228.4 1526.6 1221.14 1527.81C1217.91 1528.34 1212.28 1526.88 1210.79 1524.62C1177.47 1473.91 1122.12 1452.94 1066.46 1432.15C1057.74 1428.88 1049.43 1424.23 1041.79 1419.13C1022.52 1406.23 1020.02 1386.22 1036.33 1370.38C1044.64 1362.31 1044.72 1357.36 1033.8 1352.61C1026.19 1349.29 1018.61 1345.87 1011.03 1342.5L1011.3 1342.63ZM1317.93 1286.76C1317.06 1286.36 1316.17 1285.93 1315.3 1285.53C1285.14 1313.41 1254.97 1341.29 1224.97 1369.02C1253.88 1402.66 1319.24 1420.36 1366.79 1373.52C1407.88 1333.07 1415.71 1284.07 1407.91 1231.13C1404.95 1211.02 1393.67 1197.97 1372.72 1195.43C1360.52 1193.95 1345.87 1195.55 1335.19 1200.76C1318.67 1208.83 1304.16 1220.67 1289.54 1231.78C1257.39 1256.24 1230.3 1287.72 1184.64 1293.55C1186.63 1316.86 1194.35 1337.12 1209.1 1355.07C1211.52 1354.27 1213.1 1354.19 1213.94 1353.41C1253.12 1318.11 1293.02 1283.42 1330.9 1246.97C1341.25 1236.99 1352.58 1235.78 1366.55 1234.27C1350.87 1257.22 1335.16 1280.18 1319.48 1303.13C1318.18 1302.45 1316.9 1301.77 1315.6 1301.09C1316.39 1296.32 1317.17 1291.54 1317.93 1286.76ZM1193.18 1123.05C1164.35 1134.79 1086.74 1205.86 1084.73 1221.07C1109.37 1219.34 1134.35 1217.75 1159.26 1215.59C1161.66 1215.39 1164.89 1211.92 1165.7 1209.38C1175.03 1180.85 1183.97 1152.21 1193.18 1123.05ZM316.021 1165.84C318.059 1157.49 320.287 1151.89 320.559 1146.18C320.749 1142.31 319.445 1136.07 316.673 1134.79C306.809 1130.19 296.292 1126.19 285.558 1124.21C280.83 1123.33 270.477 1127.62 270.395 1129.84C270.123 1136.15 271.727 1145.52 276.373 1148.39C288.031 1155.58 301.809 1159.85 316.021 1165.84ZM388.902 1048.16C421.103 1052.81 428.93 1046.17 424.201 1020.35C412.652 1029.45 402.163 1037.72 388.902 1048.16ZM158.193 1562.28C158.003 1560.69 157.785 1559.11 157.595 1557.5C149.687 1556.12 139.388 1551.24 134.442 1554.13C127.133 1558.43 123.6 1568.26 118.464 1575.73C119.714 1576.73 120.937 1577.71 122.187 1578.72C134.198 1573.24 146.209 1567.76 158.193 1562.28ZM722.167 1312.28C721.596 1313.76 721.052 1315.25 720.482 1316.73C727.493 1320.38 734.803 1327.26 741.46 1326.79C747.846 1326.33 753.58 1318.21 759.613 1313.46C758.852 1312.08 758.091 1310.7 757.33 1309.29C745.618 1310.3 733.879 1311.28 722.167 1312.28ZM506.974 734.554C498.496 745.263 490.751 754.44 495.805 767.789C517.137 759.77 518.958 754.666 506.974 734.554ZM337.38 1490.6C339.472 1490.83 341.564 1491.03 343.657 1491.26C344.717 1484.62 346.564 1477.98 346.374 1471.37C346.32 1469.41 340.559 1467.6 337.434 1465.71C336.32 1468.5 334.173 1471.32 334.336 1474.03C334.662 1479.59 336.293 1485.1 337.38 1490.6ZM403.168 1422.92C414.391 1421.87 422.679 1421.09 434.12 1420.03C418.658 1407.19 411.973 1407.76 403.168 1422.92ZM1080.78 1289.55C1082.06 1290.89 1083.34 1292.24 1084.62 1293.58C1089.1 1290.86 1095 1288.98 1097.52 1285.15C1099.02 1282.87 1095.21 1277.59 1093.8 1273.67C1092.36 1273.77 1090.95 1273.87 1089.51 1273.97C1086.57 1279.15 1083.69 1284.35 1080.78 1289.55ZM933.772 1755.11C935.158 1764.18 935.729 1773.46 938.093 1782.33C941.517 1795.03 949.262 1797.39 959.044 1788.24C967.197 1780.62 975.05 1771.95 980.104 1762.42C991.545 1740.9 1009.07 1726.67 1032.9 1718.02C1045.92 1713.3 1058.47 1707.46 1071.08 1701.86C1074.97 1700.12 1078.45 1697.56 1083.15 1694.74C1070.35 1682.93 1054.72 1682.75 1040.65 1682.57C994.045 1682 947.414 1683.05 900.81 1683.53C879.995 1683.73 859.097 1685.04 838.364 1683.98C824.097 1683.25 816.461 1687.95 812.249 1700C810.347 1705.45 806.869 1710.43 803.255 1717.19C812.494 1719.71 820.999 1721.69 829.26 1724.33C855.076 1732.55 878.283 1744.57 892.087 1767.42C912.631 1801.44 902.794 1836.96 865.103 1861.1C867.685 1857.85 870.239 1854.59 872.848 1851.34C888.283 1832.29 889.424 1813.43 875.755 1793.02C856.489 1764.26 826.325 1751.18 792.004 1744.82C787.874 1744.04 781.841 1745.55 778.607 1748.09C757.058 1764.91 735.998 1782.33 712.71 1801.24C721.27 1811.39 731.433 1823.96 742.194 1836.08C755.781 1851.37 757.575 1864.39 747.439 1879.58C738.852 1892.42 723.77 1898.15 704.748 1892.45C667.492 1881.23 630.562 1868.99 593.931 1856.09C582.817 1852.17 578.714 1854.21 576.078 1864.29C567.382 1897.4 589.094 1926.16 630.318 1935.16C668.606 1943.53 705.862 1937.15 742.248 1926.41C760.672 1920.98 777.955 1912.38 795.999 1905.75C806.081 1902.03 808.173 1896.65 804.885 1887.14C799.939 1872.81 795.428 1857.78 802.059 1843.05C806.651 1832.89 812.467 1822.71 820.048 1814.31C828.961 1804.41 834.749 1805.44 844.586 1815.14C867.793 1838.07 865.456 1885.46 840.048 1906.35C838.364 1907.73 836.326 1908.76 834.912 1909.67C844.75 1929.05 863.799 1937.35 887.495 1932.32C914.37 1926.61 936.626 1912.43 960.593 1897.1C942.495 1881.18 925.104 1869.19 899.859 1874.7C901.218 1854.44 906.381 1847.22 924.995 1842.62C969.044 1831.71 1012.47 1832.96 1055.13 1849.18C1062.31 1851.92 1063.99 1855.49 1062.12 1861.52C1058.26 1873.94 1053.15 1884.23 1036.57 1887.12C1024.62 1889.2 1013.53 1895.62 1001.87 1900.19C1025.65 1937.95 1059.92 1942 1093.01 1912.46C1099.7 1906.5 1106.44 1900.59 1116.17 1891.97C1115.43 1898.66 1115.4 1901.27 1114.83 1903.79C1112.82 1912.61 1113.15 1922.36 1122.44 1925.86C1130.7 1928.98 1143.8 1930.94 1149.89 1926.99C1161.98 1919.15 1170.87 1907 1180.76 1896.39C1184.37 1892.52 1187.06 1887.9 1192.53 1884.7C1191.68 1888.7 1191.57 1892.98 1189.86 1896.62C1185.62 1905.75 1189.45 1913.19 1197.23 1917.08C1204.18 1920.58 1213.15 1920.93 1221.36 1921.79C1222.2 1921.89 1225.81 1914.95 1224.7 1913.19C1216.33 1900.04 1227.8 1891.59 1231.96 1878.54C1244.05 1902.6 1240.43 1923.09 1227.58 1941.95C1218.53 1955.2 1191.49 1953.24 1179.89 1939.66C1177.39 1936.74 1175.41 1933.45 1172.12 1928.85C1167.39 1934.66 1163.45 1939.91 1159.05 1944.84C1145.81 1959.6 1124.86 1963.87 1112.58 1953.11C1106.49 1947.78 1103.42 1939.49 1098.09 1931.16C1093.94 1934.71 1089.15 1938.81 1084.34 1942.85C1055.59 1966.99 1030.92 1966.44 1003.99 1940.99C998.936 1936.22 993.963 1931.31 989.344 1926.19C977.822 1913.36 978.121 1913.62 962.115 1922.62C943.202 1933.25 924.098 1943.58 904.614 1953.29C897.223 1956.98 888.772 1959.52 880.484 1960.93C853.228 1965.56 834.559 1956.93 823.336 1933.9C818.526 1924.05 814.314 1921.96 803.282 1927.39C767.303 1945.12 730.102 1960.8 688.933 1964.12C667.139 1965.88 644.72 1965.91 623.062 1963.27C578.198 1957.79 546.241 1913.92 569.692 1865.52C577.301 1849.81 576.92 1849.76 559.801 1842.09C547.735 1836.69 535.833 1831 523.849 1825.42C533.496 1808.91 544.719 1801.69 565.235 1801.09C600.643 1800.03 635.97 1794.22 671.133 1789.22C687.356 1786.91 687.139 1785.65 699.884 1765.21C702.52 1780.47 711.46 1777.91 720.862 1772.48C735.237 1764.18 749.395 1755.58 763.634 1747.09C763.064 1745.78 762.52 1744.47 761.95 1743.16C715.889 1743.16 669.829 1743.16 622.057 1743.16C630.834 1718.17 613.741 1708.32 593.687 1699.24C557.926 1683.03 549.284 1656.55 569.42 1624.73C597.546 1580.25 641.975 1558.05 695.346 1551.17C714.531 1548.68 735.129 1549.96 754.205 1553.55C800.673 1562.3 829.07 1597.12 828.825 1641.27C828.798 1647.45 828.825 1653.64 828.825 1660.88C838.663 1660.88 848.065 1661.05 857.44 1660.85C923.011 1659.42 988.556 1657.59 1054.13 1656.68C1066.11 1656.5 1078.42 1658.97 1090.08 1661.93C1102.52 1665.1 1105 1671.97 1100.02 1683.03C1087.8 1710.23 1067.58 1730.39 1037.47 1740.5C1007.5 1750.55 984.996 1767.07 971.762 1794.68C967.55 1803.48 959.289 1811.04 951.571 1817.88C942.305 1826.1 935.457 1824.84 930.62 1814.03C921.761 1794.1 924.56 1774.26 933.772 1755.11ZM803.907 1686.04C767.194 1686.04 731.596 1686.04 695.998 1686.04C706.324 1680.16 716.677 1676.09 727.493 1674.2C750.917 1670.11 774.504 1666.48 798.173 1664.05C807.711 1663.07 810.945 1660.55 809.776 1651.9C805.483 1619.57 786.271 1597.32 755.129 1583.85C694.585 1557.63 618.85 1586.26 582.301 1621.31C580.045 1623.47 578.85 1627.14 578.442 1630.26C576.159 1648.13 583.469 1660.35 601.078 1669.25C609.774 1673.65 619.72 1676.92 626.649 1683.08C633.008 1688.71 640.698 1698.11 639.666 1704.8C637.302 1720.41 646.486 1719.28 656.867 1719C694.367 1718.02 731.841 1716.72 769.341 1716.09C794.885 1715.63 798.581 1713.15 803.907 1686.04ZM735.428 1868.99C718.444 1846.29 703.661 1826.55 688.933 1806.87C660.237 1812.68 630.209 1818.74 600.182 1824.82C599.991 1825.9 599.774 1826.98 599.584 1828.06C643.144 1843.3 685.019 1863.26 735.428 1868.99ZM822.358 1890.26C850.701 1881.91 854.016 1874.8 842.114 1852.83C840.891 1850.59 840.266 1847.52 838.309 1846.34C833.146 1843.25 824.233 1837.62 822.467 1839.05C817.059 1843.4 810.646 1850.92 811.298 1856.57C812.521 1867.73 818.227 1878.49 822.358 1890.26ZM1010.24 1867.06C994.452 1865.4 981.028 1864.01 964.914 1862.33C983.066 1885.76 988.447 1886.31 1010.24 1867.06ZM1200.98 1805.36C1210.22 1805.36 1219.45 1805.36 1231.22 1805.36C1225.32 1794.07 1220.19 1784.24 1215.05 1774.44C1216.11 1773.66 1217.2 1772.85 1218.26 1772.07C1225.68 1780.35 1234.84 1787.79 1240 1797.11C1245.05 1806.22 1250.9 1811.82 1261.6 1813.66C1282.34 1817.2 1302.91 1823.08 1323.78 1824.24C1355.24 1825.98 1372.64 1801.89 1361.11 1774.39C1356.77 1763.98 1349.62 1754.58 1343.86 1744.67C1341.14 1740.02 1338.7 1735.24 1334.76 1728.03C1341.68 1729.01 1345.87 1729.41 1349.97 1730.22C1372.99 1734.74 1391.41 1723.23 1390.19 1701.88C1388.83 1678.02 1383.45 1654.34 1379.81 1630.61C1378.26 1630.38 1376.74 1630.18 1375.19 1629.96C1357.15 1660.33 1339.1 1690.7 1320.9 1721.32C1308.97 1714.15 1298.89 1705.25 1295.81 1690.97C1290.43 1666.11 1285.03 1641.22 1278.97 1616.51C1277.99 1612.53 1274.13 1606.85 1270.6 1606.1C1227.12 1597 1183.48 1588.7 1138.31 1579.88C1137.61 1583.87 1136.52 1587.8 1136.33 1591.77C1135.13 1615.98 1133.94 1640.21 1133.12 1664.45C1131.08 1723.83 1129.67 1783.26 1126.79 1842.62C1126.38 1850.86 1119.05 1858.83 1114.92 1866.9C1113.45 1866.8 1111.98 1866.68 1110.54 1866.58C1104.48 1839.5 1098.45 1812.43 1092.39 1785.35C1093.69 1784.92 1095.02 1784.49 1096.33 1784.07C1099.67 1787.91 1102.99 1791.76 1108.5 1798.1C1109.62 1790.91 1110.7 1786.63 1110.87 1782.33C1113.29 1715.81 1115.73 1649.29 1117.55 1582.77C1117.66 1579.17 1113.15 1573.16 1109.54 1572.16C1085 1565.32 1059.81 1560.37 1035.49 1552.93C1026.35 1550.14 1019.02 1542.27 1011.41 1537.09C1006.27 1554.69 1002.36 1572.91 995.648 1590.23C980.403 1629.53 940.349 1647.18 897.277 1633.45C865.674 1623.37 842.413 1603.13 826.353 1575.6C833.635 1582.01 840.891 1588.45 848.174 1594.83C882.087 1624.65 924.506 1626.29 954.452 1597.9C973.637 1579.7 981.517 1555.92 982.632 1531.53C983.99 1501.59 981.708 1471.5 980.213 1441.48C979.996 1436.83 976.49 1429.28 973.012 1428.48C967.305 1427.15 959.262 1428.68 954.289 1431.8C948.664 1435.34 944.887 1441.75 941.082 1447.39C933.392 1458.72 927.278 1471.97 909.098 1470.24C892.359 1468.65 876.136 1453.42 871.842 1436.05C867.712 1419.28 875.32 1407.19 893.065 1402.33C928.745 1392.58 974.235 1405.75 994.507 1434.44C1001.71 1444.65 1003.75 1458.7 1005.4 1471.32C1008.01 1491.11 1008.31 1511.17 1009.7 1532.51C1038.31 1532.51 1067.03 1532.51 1095.76 1532.51C1095.89 1533.44 1096 1534.37 1096.14 1535.3C1091.06 1537.46 1085.98 1539.63 1080.92 1541.76C1080.68 1542.77 1080.43 1543.77 1080.19 1544.78C1092.55 1548.45 1104.89 1552.12 1118.99 1556.29C1124.59 1528.72 1127.09 1501.36 1148.53 1477.93C1145.41 1500 1142.96 1519.66 1139.78 1539.25C1136.6 1558.91 1137.36 1561.1 1157.55 1565.12C1192.34 1572.03 1227.31 1578.22 1262.17 1584.88C1271.74 1586.71 1277.09 1584.7 1279.46 1574.82C1283.75 1556.77 1297.25 1544.23 1311.49 1543.1C1327.45 1541.81 1352.47 1555.46 1359.43 1569.27C1363.89 1578.12 1362.45 1586.84 1353.48 1591.26C1340.95 1597.42 1326.96 1600.99 1313.97 1606.45C1310.08 1608.08 1304.56 1612.51 1304.75 1615.35C1306 1633.93 1308.61 1652.43 1312.74 1671.06C1350.54 1620.4 1379.32 1566.58 1398.89 1508.55C1420.22 1517.75 1423.42 1523.89 1414.86 1542.14C1398.51 1577.04 1398.97 1612.89 1406.22 1649.26C1409.57 1666.11 1412.85 1683 1416.93 1699.7C1423.7 1727.32 1411.36 1752.49 1372.09 1746.05C1370.87 1745.85 1369.48 1746.31 1364.97 1746.81C1370.33 1754.75 1374.89 1761.54 1379.46 1768.3C1388.89 1782.18 1394.67 1797.04 1390.35 1813.53C1384.78 1834.65 1360.22 1847.55 1333.59 1844.03C1327.83 1843.27 1322.12 1842.27 1315.49 1841.24C1316.01 1843.22 1315.9 1844.71 1316.6 1845.18C1340.38 1861.12 1335.79 1883.15 1330.68 1904.59C1327.34 1918.52 1316.41 1921.86 1302.44 1914.37C1282.44 1903.61 1265.87 1889.86 1257.93 1868.82C1254.81 1860.54 1250 1852.73 1247.74 1844.28C1244.84 1833.32 1238.72 1828.19 1226.6 1825.05C1216.6 1822.46 1208.2 1814.46 1199.1 1808.88C1199.7 1807.67 1200.35 1806.52 1200.98 1805.36ZM1263.34 1832.74C1261.96 1833.69 1260.6 1834.67 1259.21 1835.63C1268.88 1855.19 1278.23 1874.92 1288.45 1894.26C1292.17 1901.3 1298.78 1902.2 1301.6 1893.65C1305 1883.45 1306.93 1872.74 1308.61 1862.13C1310.62 1849.43 1305.35 1841.29 1290.57 1839.07C1281.39 1837.72 1272.42 1834.9 1263.34 1832.74ZM1309.59 1582.06C1323.31 1578.22 1333.89 1574.9 1336.01 1560.62C1321.03 1561.27 1315.24 1569.82 1309.59 1582.06ZM899.016 1450.58C905.348 1442.43 910.511 1435.77 916.924 1427.5C897.304 1429.39 892.087 1435.6 899.016 1450.58ZM1011.06 1342.37C981.979 1352.41 952.74 1362.11 923.854 1372.57C868.5 1392.6 816.95 1419.08 769.178 1451.89C761.596 1457.09 760.428 1463.5 763.58 1470.52C764.776 1473.13 769.558 1475.82 772.792 1475.9C783.526 1476.17 794.423 1474.19 805.048 1475.07C820.266 1476.32 828.69 1485.3 828.717 1499.4C828.744 1515.64 822.711 1529.7 807.928 1539.58C794.559 1548.48 782.982 1547.85 771.624 1536.91C766.352 1531.83 760.618 1526.2 758.091 1519.82C753.281 1507.72 746.297 1508.35 735.645 1512.78C724.313 1517.5 712.221 1520.62 698.416 1525.1C698.416 1519.39 697.791 1516.12 698.525 1513.1C704.313 1489.37 680.345 1482.76 664.992 1490.18C655.78 1494.62 648.334 1502.49 640.698 1509.41C636.133 1513.56 632.736 1518.81 628.796 1523.56C627.709 1522.58 626.595 1521.6 625.508 1520.62C625.508 1519.44 625.019 1517.98 625.589 1517.1C631.378 1508.15 633.008 1499.58 621.649 1493.44C610.399 1487.38 600.345 1491.03 592.736 1499.38C586.132 1506.62 580.915 1514.94 573.659 1524.74C571.784 1520.07 571.377 1517.25 569.774 1515.27C563.442 1507.55 558.224 1497.84 549.828 1493.09C535.317 1484.87 525.48 1491.13 525.643 1506.62C525.833 1522.93 527.192 1539.22 527.192 1555.52C527.192 1563.59 532.789 1564.09 538.605 1564.74C560.534 1567.21 582.491 1569.47 604.638 1573.44C582.681 1575.15 560.779 1577.46 538.768 1578.29C529.202 1578.67 527.382 1582.37 527.654 1589.83C529.42 1635.41 529.909 1681.07 533.36 1726.55C534.447 1740.9 533.333 1752.59 521.784 1765.89C512.681 1737.93 504.175 1711.91 495.697 1685.87C497.137 1685.24 498.577 1684.64 500.017 1684.01C503.496 1688.21 507.001 1692.43 512.952 1699.59C512.952 1679.94 513.305 1663.85 512.844 1647.78C512.409 1632.32 510.941 1616.88 510.208 1601.45C509.365 1583.67 506.349 1580.1 487.762 1584.15C441.756 1594.11 396.049 1605.34 350.315 1616.35C342.516 1618.24 334.01 1620.23 327.923 1624.65C323.575 1627.82 321.999 1634.98 320.885 1640.67C320.667 1641.75 328.14 1644.51 332.325 1645.9C336.102 1647.15 340.233 1647.45 344.173 1648.36C368.657 1654.04 377.353 1662.39 375.016 1677.82C372.027 1697.43 350.151 1717.32 331.591 1716.97C317.189 1716.69 310.722 1706.81 304.607 1696.85C303.276 1694.72 302.597 1692.2 301.836 1689.79C295.069 1668.17 295.069 1668.17 270.341 1672.09C265.151 1696.7 251.781 1716.67 228.628 1730.69C226.291 1732.13 224.199 1734.84 223.384 1737.36C220.422 1746.61 218.058 1756.04 214.797 1767.85C200.394 1752.69 188.329 1739.95 174.66 1725.54C180.775 1725.54 184.334 1725.54 191.671 1725.54C181.943 1713.57 174.796 1702.59 165.367 1693.66C132.866 1662.86 147.377 1632.52 174.715 1611.98C178.954 1608.81 190.258 1609.27 195.313 1612.31C209.634 1620.93 222.786 1631.34 235.612 1641.87C243.058 1648.01 250.612 1650.6 260.178 1648.56C260.612 1648.46 261.074 1648.38 261.509 1648.38C288.14 1648.58 308.928 1641.87 320.45 1616.1C327.543 1600.24 347.271 1596.12 363.983 1590.76C407.897 1576.71 451.81 1562.45 498.849 1560.54C507.898 1560.17 506.784 1554.89 507.599 1549.46C510.561 1529.75 512.708 1509.83 517.572 1490.53C520.941 1477.13 527.599 1463.55 546.186 1462.95C564.23 1462.34 575.616 1471.52 582.274 1486.48C582.545 1487.08 583.714 1487.36 582.708 1486.78C593.931 1478.59 603.497 1468.76 615.453 1463.65C627.573 1458.45 637.138 1466.22 646.024 1484.44C657.601 1472.48 668.063 1459.13 687.737 1459.7C703.607 1460.18 708.416 1466.24 713.715 1492.61C736.487 1492.54 746.406 1486.78 749.341 1467.57C753.58 1439.82 772.52 1423.05 796.244 1409.75C824.776 1393.76 853.907 1378.7 883.011 1363.62C907.332 1351.02 934.261 1348.43 961.49 1346.87C978.093 1345.92 994.643 1344.06 1011.25 1342.6C1011.3 1342.63 1011.06 1342.37 1011.06 1342.37ZM203.628 1692.76C203.601 1707.67 209.443 1716.39 219.335 1716.31C231.509 1716.21 254.091 1702.51 250.585 1697.06C245.096 1688.48 236.4 1678.63 226.916 1676.04C213.547 1672.37 203.655 1681.77 203.628 1692.76ZM213.221 1660.53C200.394 1651.73 188.709 1643.38 176.563 1635.64C174.09 1634.05 168.872 1633.55 166.698 1634.93C164.905 1636.09 164.253 1641.52 165.611 1643.73C173.981 1657.41 183.057 1670.71 192.568 1685.14C200.449 1675.76 205.938 1669.23 213.221 1660.53ZM813.662 1506.79C802.629 1505.18 793.472 1503.88 782.059 1502.22C792.928 1519.49 801.162 1520.8 813.662 1506.79ZM328.222 1672.67C334.798 1691.68 344.526 1695.5 356.646 1684.08C347.488 1680.41 339.173 1677.07 328.222 1672.67ZM1328.67 966.952C1297.55 966.952 1267.39 966.952 1237.23 966.952C1237.12 965.971 1237.01 964.991 1236.9 964.01C1241.57 962.15 1246.25 960.265 1250.92 958.404C1251.19 957.122 1251.44 955.84 1251.71 954.583C1188.53 940.982 1125.38 927.406 1061.98 913.755C1039.02 947.946 1000.87 943.923 969.126 931.253C920.43 911.819 885.076 879.463 865.402 833.884C836.978 767.965 882.495 704.008 959.207 700.991C973.528 700.438 987.903 700.916 1003.8 700.916C1003.12 694.505 1002.25 686.862 1001.49 679.194C999.289 657.624 1001.27 636.531 1011.3 616.645C1029.45 580.568 1078.91 565.157 1117.47 589.87C1107.93 589.87 1095.46 587.683 1084.29 590.298C1054.37 597.312 1034.37 623.106 1032.99 655.386C1032.33 670.722 1033.99 686.209 1035.62 701.519C1036.03 705.391 1039.29 710.62 1042.88 712.33C1055.27 718.212 1068.77 722.109 1081.06 728.143C1093.31 734.151 1104.62 741.844 1118.64 750.141C1126.27 738.501 1133.72 727.313 1141.03 716.025C1144.75 710.293 1147.96 704.259 1151.82 698.628C1158.83 688.371 1169.29 684.197 1182.04 686.083C1194.89 687.968 1207.55 691.513 1211.33 704.913C1214.97 717.81 1219.07 731.059 1219.35 744.208C1220.35 793.91 1219.92 843.663 1219.89 893.366C1219.89 895.704 1218.4 898.042 1217.36 901.034C1201.09 898.947 1189.16 894.975 1180.98 878.885C1165.87 849.144 1146.95 820.987 1128.75 792.653C1120.79 780.284 1110.76 768.946 1090.89 773.144C1093.91 770.102 1096.95 767.06 1102.04 761.932C1083.31 749.06 1065.19 736.615 1047.06 724.171C1045.27 725.403 1043.47 726.609 1041.65 727.841C1060.7 767.186 1079.78 806.556 1098.86 845.951C1069.62 856.334 1065.35 861.94 1064.72 884.315C1064.51 892.109 1067.14 895.553 1075.32 897.263C1107.85 904.076 1140.32 911.065 1172.66 918.607C1211.52 927.657 1249.92 938.669 1289.1 946.085C1305.81 949.253 1318.1 955.035 1328.67 966.952ZM1066.49 841.778C1063.28 833.154 1060.95 825.16 1057.39 817.668C1043.39 788.304 1028.56 759.267 1014.91 729.752C1007.09 712.832 996.681 706.472 977.007 709.564C971.246 710.469 965.539 711.751 959.805 712.958C905.131 724.347 882.902 770.907 890.103 814.274C898.636 865.611 933.908 899.978 980.267 925.621C999.072 936.029 1023.09 924.741 1027.66 904.201C1016.19 898.696 1004.1 893.919 993.23 887.408C982.496 880.972 973.012 872.776 962.985 865.359C963.582 864.781 964.18 864.203 964.751 863.6C986.735 871.016 1008.72 878.458 1031.08 886C1039.02 851.934 1042.14 848.013 1066.49 841.778ZM1136 765.954C1153.5 788.58 1171.71 812.112 1189.94 835.669C1192.09 790.793 1195.05 746.973 1180.46 702.349C1164.48 725.201 1150.35 745.389 1136 765.954ZM1330.52 97.5952C1325.81 121.152 1323.45 123.364 1299.59 122.459C1252.23 120.674 1209.84 133.772 1170.46 157.354C1158.39 164.569 1145.57 171.081 1132.31 176.134C1109.07 185.009 1087.42 175.782 1081.71 153.306C1078.12 139.152 1072.01 138.8 1060.38 144.105C1042.14 152.401 1023.61 160.094 1005.46 168.516C1002.22 170 998.284 173.595 997.985 176.511C996.409 192.174 995.865 207.937 995.213 219.376C1009.4 227.043 1022.14 231.82 1031.9 239.739C1042.44 248.337 1041.06 261.586 1031.25 271.115C1017.06 284.866 998.637 290.699 978.882 291.604C961.952 292.383 950.512 276.796 955.213 261.712C962.332 238.784 962.332 238.784 955.919 230.437C972.468 217.993 968.8 200.797 970.403 183.073C946.49 187.95 924.343 192.5 901.571 197.151C901.109 246.578 919.316 297.185 891.652 345.857C891.353 342.162 890.973 338.441 890.728 334.745C888.011 292.182 885.293 249.645 882.603 207.082C882.168 200.068 879.614 196.397 870.728 194.989C849.722 191.62 828.798 186.391 814.26 170.377C791.542 145.362 791.108 112.755 814.124 82.511C809.505 103.931 804.097 123.188 819.559 140.083C834.097 155.971 853.228 162.835 876.462 165.449C873.744 140.359 871.407 116.451 868.527 92.5671C865.837 70.1921 861.407 47.9428 860.13 25.5176C859.668 17.1961 866 8.52261 872.549 0C882.821 26.6992 893.092 53.3983 903.364 80.0723C902.06 80.7763 900.756 81.4551 899.451 82.159C895.81 78.6142 892.196 75.0442 887.332 70.2927C886.598 74.2397 885.538 76.6281 885.81 78.8656C889.152 105.816 892.44 132.767 896.571 159.617C896.978 162.256 903.174 166.329 906.272 166.028C923.718 164.393 941.055 161.678 958.419 159.24C969.669 157.656 972.251 151.346 968.909 142.069C959.914 117.18 950.865 92.2906 941.87 67.3764C940.158 62.65 938.256 57.9236 936.979 53.0966C928.31 20.3889 952.794 -3.24312 989.045 2.74031C1014.91 7.01419 1022.41 10.911 1050.24 34.8698C1059.37 29.7663 1068.8 24.3611 1078.39 19.157C1087.5 14.2044 1096.71 9.45281 1106.9 6.33539C1092.2 15.7631 1077.61 25.3667 1062.74 34.5681C1056.22 38.5906 1055 42.1605 1059.43 48.7976C1068.61 62.5494 1076.65 76.9549 1084.81 90.4805C1091.57 83.7931 1097.31 72.9827 1104.89 71.7006C1121.74 68.8848 1141.06 66.6725 1156.6 71.6251C1210.3 88.7206 1264.97 96.9919 1321.49 96.4891C1324.43 96.4136 1327.47 97.193 1330.52 97.5952ZM1087.71 107.098C1088.77 114.087 1089.29 117.305 1089.78 120.498C1093.58 146.519 1113.37 157.631 1139.43 147.021C1154.64 140.837 1168.8 132.314 1183.37 124.747C1189.73 121.428 1195.89 117.833 1202.15 114.364C1201.9 113.283 1201.66 112.202 1201.44 111.121C1184.02 107.45 1166.06 99.4808 1149.35 101.266C1131 103.252 1113.77 101.769 1095.95 100.612C1087.14 100.034 1082.2 97.017 1078.01 89.9777C1068.94 74.7426 1058.86 60.0354 1047.2 42.06C1037.22 50.8591 1029.29 57.8482 1019.1 66.8485C1026.25 71.776 1029.91 73.6615 1032.69 76.3515C1042.9 86.2317 1036.93 106.193 1022.58 110.14C1014.37 112.403 1009.1 109.185 1008.09 101.492C1007.52 97.017 1007.88 92.1397 1009.21 87.8156C1011.35 80.8517 1013.12 74.9185 1006.22 68.7088C1003.72 66.4714 1005.32 60.3119 1004.94 54.1777C1011.41 58.9795 1015.49 61.9712 1019.56 64.9881C1027.99 55.9626 1035.57 47.8423 1045.81 36.8559C1040.59 33.5625 1036.33 30.2691 1031.49 27.931C1018.94 21.8722 1006.6 12.5954 993.338 11.1875C969.914 8.6986 955.566 28.635 963.012 53.2978C972.088 83.3657 984.099 112.705 994.942 142.32C995.295 143.275 996.708 143.904 998.148 145.086C1027.47 132.666 1056.74 120.247 1087.71 107.098ZM1014.86 243.787C1013.72 242.555 1012.58 241.323 1011.44 240.116C989.235 239.387 984.371 244.038 988.556 265.911C998.284 257.715 1006.57 250.751 1014.86 243.787ZM1020.51 80.1729C1018.28 81.3042 1016.06 82.4104 1013.85 83.5417C1016.57 89.0726 1019.29 94.5784 1022.01 100.109C1025.27 98.6511 1028.53 97.2181 1031.76 95.76C1028.04 90.5559 1024.29 85.377 1020.51 80.1729ZM201.889 503.387C201.889 503.488 201.074 505.6 201.508 507.485C210.367 546.629 193.22 579.94 172.867 611.919C152.323 644.224 133.6 678.013 98.5997 704.134C119.524 713.411 138.763 721.933 158.22 730.581C166.236 721.606 175.611 714.743 166.1 702.022C162.378 697.044 162.758 689.452 161.073 682.287C171.889 680.577 181.508 679.044 192.541 677.309C190.747 668.635 189.117 660.641 187.106 650.936C198.682 649.378 209.525 647.895 221.59 646.26C223.655 656.593 225.422 665.317 227.324 674.77C216.862 676.479 207.623 678.013 196.237 679.873C197.623 688.169 199.008 696.466 200.394 704.662C175.72 710.947 172.976 713.36 167.052 734.755C193.981 746.47 221.155 758.412 248.52 769.977C250.639 770.856 255.15 769.826 256.835 768.166C282.759 742.724 314.961 725.981 348.385 710.846C349.825 710.193 350.776 708.634 350.505 708.885C337.434 698.301 322.624 689.577 312.461 677.485C280.64 639.724 299.743 593.239 350.097 583.284C381.021 577.174 408.984 584.993 435.098 600.103C436.484 600.907 437.218 602.642 439.555 605.633C397.462 594.622 359.309 600.379 322.57 617.902C313.684 622.151 311.184 626.173 314.852 635.475C330.369 674.82 386.565 695.536 426.43 676.479C447.979 666.172 470.153 657.021 495.914 645.632C490.044 661.118 488.686 672.909 472.734 679.974C422.272 702.298 372.407 725.805 323.032 750.065C306.564 758.16 292.189 769.901 273.466 782.195C294.254 791.497 310.504 800.598 328.059 806.078C342.488 810.578 347.842 820.257 355.858 833.331C323.847 827.247 294.662 821.716 265.477 816.185C265.558 814.928 265.64 813.696 265.721 812.439C270.477 811.509 275.205 810.603 280.205 809.623C270.857 796.123 262.379 795.318 252.868 806.48C245.585 815.028 238.493 823.702 231.101 832.149C218.737 846.253 203.737 856.711 183.139 851.281C161.997 845.7 149.388 831.319 143.736 811.659C138.437 793.231 140.448 775.08 146.318 757.281C148.492 750.694 147.024 747.325 140.584 744.434C124.334 737.193 108.138 729.827 92.1866 722.034C83.5723 717.835 76.5342 718.313 68.6809 723.995C55.2568 733.699 41.0719 742.498 25.1478 749.688C38.0283 736.389 50.9089 723.115 64.4145 709.162C41.8327 693.323 15.7455 681.105 3.78882 653.878C25.8271 666.247 46.6154 677.56 66.9689 689.502C75.719 694.631 81.2354 692.72 87.567 685.806C128.057 641.383 162.079 592.963 185.584 539.238C193.166 521.916 191.182 500.747 192.133 481.289C193.03 462.71 202.786 448.229 215.503 435.583C218.873 432.24 229.933 431.812 235.069 434.301C256.074 444.458 269.852 459.919 272.243 483.099C273.33 493.532 268.574 498.711 258.982 499.692C240.748 501.552 222.378 502.13 201.889 503.387ZM155.041 750.719C151.888 766.18 147.106 779.027 147.051 791.874C146.915 820.936 176.997 839.741 199.579 824.758C214.199 815.053 225.721 801.327 240.34 787.851C226.889 781.717 216.998 776.966 206.916 772.616C191.074 765.778 175.122 759.166 155.041 750.719ZM241.889 472.892C242.052 470.855 242.243 468.794 242.406 466.758C235.666 465.325 228.954 462.886 222.242 462.961C219.525 462.987 216.835 468.417 214.144 471.383C214.824 472.339 215.53 473.294 216.21 474.249C224.77 473.797 233.329 473.344 241.889 472.892ZM49.7404 241.826C38.6262 217.113 27.1043 193.129 17.0227 168.667C5.63667 141.063 -0.341661 112.227 2.56598 82.6367C5.90841 48.5462 17.4303 22.2242 52.5122 12.0171C75.8549 5.22921 99.5508 7.51699 121.154 20.414C102.513 16.6933 84.5506 16.0396 67.6754 26.0706C43.1643 40.6521 35.012 63.178 32.7565 88.067C29.5228 123.465 39.7131 156.801 53.2187 189.408C57.7297 200.319 63.083 210.928 67.757 221.764C71.5342 230.563 77.5397 231.267 87.1593 229.633C102.812 226.993 119.143 224.881 134.823 226.214C145.231 227.094 156.073 233.027 164.823 239.035C180.15 249.569 179.552 259.273 165.177 270.562C141.182 289.341 92.1866 286.953 70.7189 265.533C65.3384 260.178 61.5612 260.028 56.4253 265.307C44.2512 277.852 37.6479 291.68 42.7567 308.876C50.2024 333.941 66.2895 354.506 82.0778 376.705C98.654 359.684 113.844 343.821 105.828 319.56C128.328 320.365 138.22 329.692 143.79 353.198C151.807 386.962 150.176 420.373 139.66 453.358C137.812 459.115 134.415 467.336 129.66 468.844C119.931 471.937 104.143 462.358 100.013 454.062C94.5507 443.075 88.9528 432.164 83.1919 421.329C82.0506 419.192 79.9582 417.457 78.3821 415.647C43.273 432.24 36.9414 468.869 63.9797 495.292C72.1863 503.312 80.0669 511.608 88.1104 519.779C87.4039 520.734 86.6974 521.715 85.9909 522.67C82.2952 521.966 78.5995 521.162 74.9038 520.583C55.1209 517.391 42.5121 530.69 50.7459 547.685C54.7405 555.956 62.4308 563.322 70.1211 569.255C78.6266 575.792 89.0615 580.216 101.833 587.356C87.6757 588.588 75.8549 580.82 66.6156 592.007C58.8166 601.46 59.0884 611.039 61.3438 623.533C76.3712 617.525 90.5018 616.72 103.083 626.601C88.1104 639.724 49.36 632.282 37.349 622.427C25.6369 612.798 26.8054 593.742 39.6588 582.027C43.4632 578.582 48.2187 576.068 53.7079 572.347C50.5285 570.311 47.1861 568.602 44.3871 566.339C37.6207 560.909 29.9033 556.057 24.713 549.495C11.6693 532.927 19.1966 515.052 40.6099 509.622C43.5719 508.868 46.6698 508.541 52.1318 507.611C46.5611 502.181 42.4577 498.007 38.1642 493.985C9.65845 467.361 10.3106 437.62 39.9849 412.027C40.6371 411.449 41.3708 410.946 42.023 410.368C68.0015 387.892 67.6482 397.244 47.0774 367.151C35.9903 350.961 24.9304 334.469 16.6694 316.971C4.06056 290.297 11.5878 268.45 36.5881 250.675C41.1806 247.432 45.936 244.39 49.7404 241.826ZM84.1158 247.96C98.5453 275.363 105.04 277.324 130.937 263.774C132.106 263.17 133.79 262.793 134.361 261.863C137.54 256.609 144.415 248.765 142.703 246.376C138.763 240.946 129.823 234.284 124.198 235.139C110.475 237.25 97.5127 243.385 84.1158 247.96ZM97.2682 398.652C102.73 406.571 107.866 414.013 113.029 421.48C114.306 420.977 115.611 420.474 116.888 419.971C117.567 407.225 118.247 394.504 118.953 381.758C117.622 381.506 116.263 381.23 114.931 380.978C109.198 386.66 103.518 392.392 97.2682 398.652ZM604.502 350.031C614.611 347.768 624.747 345.505 637.383 342.69C628.606 334.192 621.568 327.379 614.557 320.566C615.182 319.585 615.807 318.63 616.459 317.65C627.03 323.105 637.41 328.913 648.253 333.865C655.073 336.983 662.628 340.98 669.775 340.854C686.84 340.502 704.014 338.893 720.808 336.027C738.172 333.061 752.14 324.262 756.732 307.417C761.352 290.548 755.781 275.992 741.161 264.804C729.504 255.854 717.628 247.131 702.846 236.044C711.623 234.56 716.27 233.605 720.971 233.002C744.803 229.935 757.493 214.398 748.797 193.984C739.314 171.734 725.726 150.994 713.933 129.574C712.574 129.85 711.215 130.102 709.857 130.378C703.335 164.997 696.84 199.64 690.101 235.44C676.242 231.166 662.709 226.264 654.476 213.945C640.019 192.324 625.345 170.754 612.165 148.454C607.79 141.038 603.551 139.504 595.453 140.485C541.322 147.122 487.191 153.684 433.006 159.843C408.848 162.583 384.608 165.097 360.342 166.028C351.619 166.354 342.679 161.804 333.847 159.466C333.847 158.259 333.82 157.052 333.82 155.846C357.978 146.82 382.136 137.795 406.321 128.769C407.027 129.901 407.734 131.057 408.44 132.188C404.473 135.633 400.505 139.102 396.538 142.546C464.011 139.178 531.458 136.286 598.252 121.353C597.926 114.992 597.464 109.738 597.383 104.459C597.056 77.9354 615.752 62.8511 643.878 67.9044C657.628 70.3933 673.172 73.8878 677.383 88.0167C681.432 101.618 668.362 109.512 658.823 117.607C655.535 120.398 651.514 122.535 647.601 124.596C631.269 133.219 630.888 133.32 639.367 149.158C646.894 163.237 655.372 176.888 663.416 190.741C665.101 190.565 666.786 190.414 668.47 190.238C673.715 160.547 680.454 131.032 683.797 101.165C687.112 71.3235 687.03 41.1549 688.443 11.0618C706.732 9.67907 715.02 15.7379 714.531 32.1044C713.118 80.1226 732.194 121.805 759.477 161.276C766.732 171.785 772.819 183.173 777.819 194.763C787.711 217.817 777.412 235.038 751.352 240.846C748.852 241.399 746.27 241.7 739.83 242.756C749.286 249.871 756.243 255.352 763.499 260.455C784.613 275.313 794.477 296.205 787.765 314.582C781.868 330.723 768.77 340.628 751.759 346.259C746.379 348.044 740.808 349.276 732.058 351.639C757.031 360.916 761.216 380.073 765.618 398.728C769.667 415.924 761.352 423.064 742.629 420.725C711.868 416.854 689.259 401.619 672.112 378.565C663.362 366.799 654.612 358.277 636.052 361.293C626.106 362.902 614.611 356.29 603.823 353.399C604.067 352.268 604.285 351.137 604.502 350.031ZM676.052 356.492C675.373 358.025 674.693 359.559 674.014 361.092C689.666 376.503 705.128 392.04 721.107 407.124C723.417 409.312 729.232 411.122 731.324 409.94C733.987 408.432 736.27 403.353 735.645 400.387C732.846 387.037 729.449 373.738 725.074 360.74C724.123 357.899 718.281 354.681 714.667 354.656C701.786 354.581 688.932 355.788 676.052 356.492ZM647.03 79.8209C644.937 78.8907 642.845 77.9857 640.753 77.0555C636.296 85.6535 631.839 94.2515 627.383 102.85C628.769 103.478 630.128 104.132 631.513 104.76C640.345 98.2992 649.34 91.9135 647.03 79.8209ZM258.194 1870.47C258.194 1876.63 258.194 1882.82 258.194 1892.98C272.379 1887.72 284.58 1884.75 294.526 1878.67C298.14 1876.46 296.401 1866.73 297.189 1859.61C300.151 1864.69 302.923 1869.44 305.45 1873.77C334.037 1863.99 361.945 1854.59 389.663 1844.66C392.489 1843.65 395.886 1839.48 395.858 1836.81C395.587 1805.31 404.744 1775.87 417.054 1749.37C406.076 1742.16 394.364 1737.13 386.837 1728.88C373.576 1714.4 379.799 1694.97 399.228 1689.79C414.174 1685.79 430.207 1684.03 445.805 1683.76C461.647 1683.48 473.767 1706.66 465.642 1719.28C462.626 1723.96 458.359 1728.15 456.43 1733.13C454.446 1738.24 454.636 1744.07 457.136 1749.42C452.462 1752.11 445.669 1753.8 443.413 1757.69C429.256 1782.18 420.696 1808.28 420.152 1836.31C438.658 1837.52 456.674 1837.62 474.311 1840C534.855 1848.23 560.398 1906.9 523.496 1951.98C523.061 1952.51 521.947 1952.58 519.963 1953.29C522.436 1946 524.855 1939.46 526.865 1932.82C532.518 1914.12 525.154 1898.96 510.262 1886.99C488.93 1869.82 462.463 1866.18 435.451 1865.65C426.022 1865.47 419.473 1867.96 422.843 1880.15C426.837 1894.61 428.549 1909.79 429.527 1924.75C432.109 1964.6 399.391 1975.44 364.771 1965.56C340.45 1958.62 325.043 1941.7 315.042 1920.43C312.189 1914.37 309.39 1908.29 306.021 1901.05C296.156 1904.82 287.243 1908.54 278.113 1911.68C269.335 1914.7 260.341 1917.14 249.743 1920.35C248.574 1914.95 247.27 1911.1 246.944 1907.2C245.042 1884.73 224.742 1871.66 201.943 1880.38C177.976 1889.53 155.041 1901.05 132.051 1914.65C150.204 1919.72 170.177 1931.72 186.128 1928.2C208.791 1923.19 227.867 1934.21 248.955 1929.88C244.254 1950.75 232.895 1961.08 212.025 1960.43C196.101 1959.95 179.633 1957.91 164.579 1953.31C117.024 1938.83 68.9254 1928.72 18.5173 1930.38C13.5987 1930.54 8.65301 1930.41 3.68012 1930.41C4.90296 1908.66 11.9139 1903.11 33.7348 1904.82C81.7788 1908.61 124.252 1893.38 165.095 1872.06C178.057 1865.3 191.345 1858.91 205.068 1853.63C224.688 1846.11 238.003 1850.06 251.672 1865.45C253.547 1867.56 256.265 1869.04 258.602 1870.83C258.52 1870.83 258.194 1870.47 258.194 1870.47ZM400.804 1871.53C398.956 1870.52 397.081 1869.52 395.233 1868.54C370.532 1877.06 345.668 1885.26 321.32 1894.58C318.195 1895.79 315.178 1903.89 316.51 1907.33C323.276 1924.83 333.494 1940.57 350.45 1951.53C371.51 1965.15 397.869 1956.68 401.158 1933.12C403.956 1912.94 401.13 1892.1 400.804 1871.53ZM436.43 1709.1C422.326 1712.89 408.168 1712.54 402.217 1726.95C426.946 1732.83 427.924 1732.35 436.43 1709.1ZM836.869 810C827.276 809.497 821.978 809.171 816.679 808.969C796.352 808.165 784.341 823.853 793.662 840.596C798.037 848.465 805.456 855.127 812.385 861.513C818.662 867.32 826.108 872.022 831.869 879.413C829.206 878.885 826.488 877.728 823.88 877.904C818.092 878.332 810.13 877.603 807.113 880.695C803.064 884.868 799.45 893.768 801.651 897.916C806.38 906.791 814.532 914.283 822.059 921.649C827.141 926.627 833.527 930.423 840.483 935.602C799.233 944.401 795.727 974.419 811.896 1008.26C815.836 1003.31 819.151 999.132 822.494 994.984C838.173 975.55 872.576 954.306 905.375 966.047C936.001 977.033 954.37 1009.01 947.631 1043.35C943.8 1062.81 934.669 1079.96 919.207 1094.29C930.892 1058.44 925.81 1023.92 911.462 990.131C905.647 976.43 901.544 975.198 886.625 980.779C843.527 996.919 822.983 1042.65 840.945 1081.84C848.717 1098.76 856 1115.86 863.364 1132.93C864.967 1136.62 865.918 1140.55 867.82 1146.33C851.081 1142.51 839.505 1139.39 833.336 1123.12C817.304 1081.06 797.983 1040.09 780.482 998.478C776.597 989.252 773.852 979.371 772.357 969.541C769.613 951.516 779.939 938.87 806.651 926.602C801.026 922.931 796.244 919.537 791.189 916.545C760.944 898.595 761.107 879.589 792.711 862.946C787.493 859.225 782.629 855.731 777.792 852.236C763.444 841.929 757.004 827.397 761.352 815.229C765.754 802.961 777.303 797.581 798.119 798.058C799.369 798.084 800.619 797.757 804.586 797.229C799.287 786.745 794.966 776.89 789.287 767.764C787.847 765.451 782.14 764.395 778.417 764.471C747.792 765.15 725.726 753.132 707.982 729.827C688.09 703.731 667.601 678.088 657.655 647.291C652.845 632.383 649.014 615.79 651.024 600.706C657.057 555.654 699.693 529.382 750.047 538.332C768.607 541.626 786.542 547.81 804.776 552.688C804.423 553.693 804.097 554.699 803.744 555.705C786.624 552.964 769.586 548.464 752.412 547.861C711.487 546.453 680.943 573.831 682.275 611.617C682.9 629.19 685.454 648.297 693.742 663.658C708.933 691.89 728.879 717.936 747.113 744.735C754.069 754.968 764.314 752.227 773.499 748.331C775.7 747.4 776.624 741.543 776.216 738.149C775.102 728.696 771.651 719.344 771.542 709.916C771.352 695.309 781.162 685.354 796.869 686.284C808.961 686.988 822.439 690.03 832.249 696.214C854.179 710.017 852.25 733.171 827.358 748.431C814.369 756.401 813.282 762.56 820.483 774.175C826.896 784.659 830.782 796.424 836.869 810ZM804.07 731.235C818.771 715.95 818.635 710.017 804.07 700.865C804.07 710.947 804.07 719.444 804.07 731.235ZM1103.31 625.344C1133.45 625.344 1163.42 625.344 1193.42 625.344C1193.67 626.299 1193.94 627.254 1194.18 628.21C1188.83 630.321 1183.48 632.433 1178.1 634.57C1177.91 635.5 1177.74 636.43 1177.55 637.361C1193.34 640.906 1209.1 644.651 1224.94 647.945C1265 656.266 1305.35 663.381 1345 673.06C1360.76 676.907 1375.6 685.228 1389.78 693.172C1411.33 705.24 1412.91 725.755 1412.2 746.269C1411.28 773.572 1393.07 787.877 1367.28 796.751C1337.91 806.858 1337.99 807.184 1342.64 836.02C1351.03 888.111 1365.14 938.242 1397.91 982.665C1405.33 992.721 1411.17 1005.01 1413.26 1016.96C1417.45 1040.74 1402.58 1058.26 1377.15 1063.49C1354.4 1068.14 1333.15 1065.05 1313.83 1052.58C1289.13 1036.64 1269.75 1016.45 1257.82 990.433C1272.01 1005.32 1284.65 1021.91 1300.9 1034.53C1314.24 1044.89 1331.01 1053.74 1347.77 1057.46C1376.03 1063.77 1395.52 1042.42 1386.47 1016.63C1381.36 1002.1 1373.64 988.02 1365.03 974.921C1339.92 936.708 1327.2 894.874 1320.14 851.18C1318.31 839.842 1316.06 828.579 1313.78 815.908C1290.49 825.084 1275.24 837.529 1273.97 860.331C1250.65 850.451 1246.93 834.638 1251.68 812.992C1260.3 773.898 1276.22 739.029 1308.15 710.821C1324.43 719.721 1337.04 729.526 1334.29 749.286C1332.91 759.342 1334.05 769.7 1334.05 780.561C1381.66 770.655 1394.62 738.853 1385.44 708.232C1384.29 704.41 1379.38 699.734 1375.3 698.754C1338.67 690.03 1301.82 682.035 1265.03 673.839C1223.86 664.638 1182.72 655.311 1141.49 646.336C1126.82 643.093 1110.79 642.59 1103.31 625.344ZM1303.64 761.705C1297.47 773.471 1291.28 785.237 1283.56 799.944C1313.86 787.55 1312.69 794.162 1303.64 761.705ZM317.325 574.535C312.488 509.371 307.678 444.936 303.031 382.261C256.563 392.266 213.003 401.644 169.443 411.021C169.008 409.789 168.6 408.532 168.166 407.3C172.867 405.365 177.595 403.454 182.296 401.493C216.862 387.163 251.4 372.732 286.047 358.553C294.037 355.285 297.379 351.137 296.211 342.262C290.558 298.744 285.124 255.201 281.265 211.532C280.504 203.034 286.999 193.984 290.151 185.185C291.319 185.235 292.488 185.285 293.656 185.361C303.412 211.23 313.14 237.125 322.896 262.994C321.51 263.547 320.097 264.1 318.711 264.654C315.586 261.058 312.434 257.463 309.309 253.868C307.787 254.17 306.292 254.472 304.771 254.773C308.249 283.257 311.754 311.716 315.803 344.726C343.793 326.348 368.684 310.082 393.413 293.666C398.168 290.498 402.054 286.199 406.864 283.132C415.832 277.425 416.103 270.034 411.103 262.617C409.228 259.827 403.712 257.639 399.962 257.765C389.228 258.142 378.549 260.983 367.896 260.807C352.244 260.581 345.206 253.064 344.581 238.633C343.82 221.06 348.005 205.624 364.88 194.914C378.304 186.391 389.146 193.229 399.391 199.867C405.125 203.587 410.56 209.093 413.386 214.926C418.332 225.158 424.011 223.926 432.381 219.099C444.854 211.909 457.789 205.397 472.734 197.428C472.734 205.171 472.626 210.074 472.762 214.951C473.169 230.94 486.756 240.921 501.865 233.63C512.681 228.401 521.213 218.269 529.23 209.143C534.963 202.607 538.143 194.109 542.436 186.492C543.55 186.844 544.665 187.171 545.779 187.523C545.344 190.363 544.909 193.204 544.474 196.07C542.192 211.331 561.187 225.837 576.54 220.18C578.66 219.401 580.29 215.378 580.535 212.713C581.513 202.682 581.812 192.576 584.04 182.57C598.959 197.629 595.48 231.418 580.045 243.334C566.703 253.592 547.328 250.977 537.436 237.452C535.235 234.435 533.469 231.141 530.751 226.792C527.056 232.801 524.012 237.854 520.887 242.857C511.648 257.564 495.561 266.539 482.327 263.246C466.158 259.223 461.62 247.281 460.914 233.354C460.886 232.65 460.098 231.996 458.848 230.035C448.93 235.491 438.848 240.67 429.256 246.578C427.299 247.759 426.946 251.53 426.402 254.22C425.071 260.782 423.685 267.394 422.951 274.031C419.908 301.484 399.391 317.122 377.516 331.703C361.402 342.438 344.934 352.771 328.222 362.701C322.244 366.246 319.662 369.514 320.341 376.579C324.445 419.443 329.01 462.308 331.075 505.248C332.189 528.729 330.178 552.688 317.325 574.535ZM387.163 232.549C387.326 231.267 387.489 230.01 387.652 228.728C374.255 216.937 367.978 216.937 358.44 230.99C368.929 231.544 378.059 232.046 387.163 232.549ZM676.514 450.995C676.514 458.336 676.351 463.238 676.541 468.14C677.03 480.912 689.992 490.289 702.465 485.16C712.357 481.088 721.161 474.199 729.477 467.537C735.727 462.559 740.455 455.947 748.444 447.223C747.982 452.805 748.091 454.338 747.683 455.771C744.993 465.048 745.047 473.495 756.488 477.669C768.145 481.942 776.868 476.21 783.444 468.543C789.722 461.227 794.206 452.629 801.053 442.221C803.852 448.682 804.505 453.106 807.168 455.771C813.934 462.534 820.592 470.504 829.179 474.375C841.788 480.032 850.945 473.747 849.885 461.026C847.576 433.547 844.152 406.119 841.135 378.691C837.086 341.709 833.065 304.702 828.825 267.721C827.983 260.304 824.858 252.888 825.32 245.622C825.918 235.943 829.016 226.415 831.027 216.811C832.684 216.836 834.342 216.887 836.027 216.912C845.673 241.474 855.32 266.036 864.994 290.624C863.717 291.227 862.413 291.83 861.136 292.434C857.793 288.889 854.478 285.344 851.135 281.799C850.157 281.975 849.206 282.151 848.228 282.327C849.369 293.942 850.51 305.557 851.652 317.172C855.918 360.765 861.054 404.309 863.826 448.003C864.614 460.372 859.152 473.294 855.239 485.613C851.353 497.831 840.429 504.066 827.521 504.368C815.592 504.669 806.271 498.208 800.483 488.202C798.39 484.557 796.379 480.836 795.102 478.548C785.184 487.775 776.352 499.013 764.586 506.077C753.689 512.614 743.254 505.625 731.053 487.297C719.449 502.834 707.221 518.522 683.688 513.544C667.084 510.049 663.824 496.976 665.128 482.973C644.557 484.532 628.905 494.764 628.742 509.874C628.361 542.933 605.671 561.437 579.801 577.552C549.529 596.382 519.556 616.544 486.702 630.623C459.419 642.313 428.196 646.185 398.603 653.149C388.195 655.613 377.516 656.995 366.972 658.881C366.592 657.9 366.211 656.92 365.831 655.965C374.445 652.495 382.896 648.674 391.674 645.632C460.207 621.899 524.42 590.826 582.953 549.998C592.328 543.461 600.942 535.969 610.535 529.684C618.714 524.329 620.1 517.466 616.106 510.225C614.421 507.183 608.551 504.393 604.638 504.443C594.828 504.569 585.018 507.41 575.236 507.183C568.904 507.033 561.648 504.644 556.621 501.049C542.599 491.018 545.262 461.88 560.833 446.469C574.366 433.069 591.948 433.371 607.057 447.5C610.834 451.045 615.155 454.791 617.057 459.241C622.138 471.258 629.883 470.604 640.372 465.702C651.378 460.548 663.036 456.4 676.514 450.995ZM562.98 476.336C574.882 477.291 583.388 477.995 591.921 478.674C579.719 462.861 575.725 462.484 562.98 476.336ZM857.304 528.829C852.739 546.076 848.01 563.272 843.663 580.568C842.548 584.993 842.059 589.669 842.277 594.195C843.336 617.5 856.842 626.575 879.886 617.5C898.881 610.008 916.87 600.153 934.778 590.474C961.68 575.917 988.121 560.632 1014.7 545.598C1027.03 538.609 1028.42 534.385 1017.17 525.888C1006.16 517.592 993.311 510.753 980.213 505.574C952.821 494.764 928.12 480.711 907.114 461.101C887.549 442.824 887.413 442.95 888.853 413.812C904.614 422.36 919.424 430.379 936.925 439.857C930.348 441.818 927.278 442.723 924.207 443.654C923.663 444.785 923.147 445.916 922.604 447.047C938.881 455.394 954.995 464.068 971.517 471.987C981.925 476.965 993.148 480.484 1003.64 485.311C1029.43 497.178 1037.6 512.136 1034.02 539.388C1033.85 540.545 1034.18 541.752 1034.4 544.592C1054.21 544.592 1073.96 545.397 1093.64 544.442C1166.68 540.872 1237.72 527.773 1306.41 504.242C1307.25 503.94 1308.18 503.714 1308.89 503.236C1314.37 499.566 1319.81 495.82 1325.27 492.099C1319.54 485.563 1314.76 477.895 1307.77 472.842C1302.04 468.668 1293.4 468.14 1286.55 465.048C1272.83 458.838 1267.5 446.922 1272.28 433.597C1277.8 418.287 1289.54 408.281 1305.6 402.775C1316.2 399.155 1328.1 404.786 1335.14 415.295C1344.65 429.55 1347.28 445.439 1344.65 461.227C1339.48 492.074 1328.67 520.206 1290.84 529.332C1244.67 540.469 1198.86 553.291 1152.09 561.587C1132.61 565.032 1111.06 558.847 1090.49 556.635C1074.37 554.9 1058.31 552.537 1042.22 550.45C1035.87 549.621 1032.52 551.38 1028.58 557.238C1023.64 564.604 1015.27 570.688 1007.09 575.44C969.289 597.513 931.082 619.008 892.875 640.528C888.31 643.093 883.12 644.878 878.011 646.436C854.097 653.752 840.048 647.341 835.483 624.263C828.744 590.222 839.016 558.596 857.304 528.829ZM1287.66 433.849C1297.83 437.469 1304.97 440.033 1314.32 443.377C1308.42 426.784 1303.42 424.798 1287.66 433.849ZM140.611 1112.99C166.372 1096.15 192.296 1079.53 217.813 1062.39C270.477 1026.99 316.401 985.229 355.26 936.809C360.641 930.096 361.592 924.842 356.32 917.802C350.342 909.808 345.26 916.922 339.825 917.777C338.086 918.054 336.51 919.085 334.825 919.688C311.184 927.884 296.863 925.194 288.384 910.989C278.819 895 285.232 866.642 300.586 855.982C312.108 848.012 323.358 851.608 333.276 857.767C342.488 863.499 350.206 871.318 359.472 878.96C366.456 874.988 374.01 870.689 382.326 865.963C370.179 840.772 372.706 816.486 382.625 791.648C385.288 785.01 380.641 775.885 379.391 767.89C378.766 764.018 378.168 760.121 377.244 754.163C396.755 760.926 413.848 766.834 433.495 773.622C427.326 776.387 423.821 777.971 416.565 781.24C433.033 787.097 446.185 792 459.528 796.449C494.392 808.064 508.007 829.635 500.153 861.261C496.485 876.044 491.104 880.469 474.881 879.765C457.299 879.011 439.799 876.647 422.245 876.296C415.37 876.17 407.761 878.558 401.592 881.676C378.603 893.341 363.983 908.4 370.152 936.08C373.739 952.195 359.554 964.79 349.037 976.631C317.787 1011.83 287.569 1048.58 242.976 1070.38C209.987 1086.49 175.285 1099.59 141.372 1114.05C141.155 1113.72 140.883 1113.34 140.611 1112.99ZM403.603 843.94C413.06 844.116 428.576 831.344 428.495 823.475C428.413 815.43 412.326 797.681 405.342 797.933C397.543 798.209 382.733 817.743 382.434 828.202C382.108 837.956 389.826 843.688 403.603 843.94ZM438.902 816.461C436.864 828.679 435.397 837.453 433.658 847.836C450.261 849.068 465.425 850.501 480.615 851.08C483.985 851.205 487.49 848.364 490.941 846.881C488.93 843.462 487.87 838.434 484.773 836.9C470.397 829.811 455.424 823.702 438.902 816.461ZM331.048 892.335C316.455 877.93 306.537 879.086 300.586 895.226C310.586 894.271 319.553 893.416 331.048 892.335ZM1319.13 160.823C1270.92 183.726 1219.48 206.227 1170.27 232.298C1141.08 247.759 1115 268.399 1088.53 287.883C1084.32 290.976 1084.78 300.252 1084.73 306.688C1084.73 307.619 1093.96 309.429 1098.94 309.404C1108.37 309.353 1117.88 307.166 1127.2 307.87C1143.07 309.052 1151.95 317.373 1150.98 331.628C1150.27 341.709 1147.66 352.796 1142.09 361.293C1126.74 384.775 1103.56 383.97 1084.45 360.363C1079.89 354.732 1076.08 348.547 1071.6 342.162C1065.76 344.022 1059.86 345.103 1055 347.768C1052.39 349.201 1049.72 353.726 1050.24 356.316C1054.32 377.408 1048.23 396.389 1035.35 413.133C1028.64 421.857 1025.95 430.203 1027.33 440.461C1028.04 445.64 1027.44 450.995 1027.44 459.04C1009.89 449.738 995.023 441.843 977.251 432.416C984.045 430.43 987.17 429.525 990.621 428.519C989.914 427.388 989.561 425.98 988.583 425.376C974.914 416.477 961.164 407.678 947.414 398.878C922.658 383.015 917.821 342.388 939.533 323.005C943.881 319.133 953.963 317.851 960.321 319.334C976.871 323.206 992.659 329.818 1009.13 334.142C1015.27 335.751 1022.74 335.047 1029.13 333.589C1058.58 326.826 1075.16 310.585 1077.06 281.02C1077.58 272.824 1086.19 263.723 1093.56 257.514C1130.19 226.616 1170.79 200.118 1216.38 182.645C1244.29 171.961 1275.73 169.095 1305.62 162.835C1311.22 161.703 1316.98 161.125 1319.13 160.823ZM1012.66 364.436C1005.57 371.375 995.186 377.333 992.224 385.554C988.746 395.233 1003.37 411.524 1011.87 412.052C1020.02 412.53 1039.89 393.498 1040.27 384.825C1040.59 378.213 1025.08 367.025 1012.66 364.436ZM934.261 347.567C942.631 369.967 963.311 376.302 981.001 387.766C984.806 379.319 988.257 372.657 990.675 365.668C991.354 363.682 989.724 359.106 988.066 358.578C971.409 353.173 955.457 344.449 934.261 347.567ZM1136.14 338.24C1123.88 338.24 1114.13 338.24 1103.12 338.24C1116.17 352.318 1124.37 352.821 1136.14 338.24ZM1294.48 286.475C1297.83 284.54 1301.41 282.855 1304.51 280.643C1321.6 268.425 1340.9 258.016 1355.11 243.385C1394.02 203.336 1408.42 154.438 1403.99 101.567C1400.73 62.7254 1379.08 33.0597 1338.48 19.685C1288.75 3.31854 1237.47 -1.91067 1185.43 10.8104C1163.45 16.1904 1141.6 21.9728 1119.67 27.5539C1129.83 29.9423 1139.64 29.9674 1149.43 29.9171C1201.41 29.7412 1253.45 27.931 1304.56 39.8225C1330.27 45.8059 1352.47 57.0185 1369.67 75.723C1408.4 117.884 1400.3 186.366 1351.41 227.018C1311.3 260.38 1261.14 273.453 1210.79 285.47C1189.1 290.649 1183.8 294.143 1180.73 315.814C1184.35 316.015 1187.88 316.267 1191.47 316.418C1234.35 318.077 1277.28 318.932 1320.08 321.672C1344.54 323.231 1368.59 326.449 1391.96 316.518C1404.97 310.987 1412.39 299.548 1411.39 284.263C1391.22 289.266 1370.63 284.615 1349.51 293.389C1335.03 299.398 1313.61 291.202 1295.33 289.367C1295.05 288.411 1294.78 287.431 1294.48 286.475ZM50.3383 787.625C58.7895 801.603 67.4037 815.506 75.6103 829.61C88.355 851.557 105.285 869.055 130.665 879.363C140.747 883.461 150.095 889.997 158.274 896.936C167.052 904.377 165.367 910.663 153.954 914.484C144.524 917.626 134.307 918.808 124.388 920.87C140.937 930.297 174.253 929.593 188.682 919.738C195.965 914.76 197.867 908.576 190.747 903.171C180.394 895.302 169.742 887.056 157.731 881.952C134.796 872.172 118.844 856.686 107.051 836.724C103.138 830.112 99.0888 823.601 95.1486 817.014C82.1321 795.419 63.8439 779.454 38.1914 771.309C24.5771 766.985 16.6422 769.65 14.0607 782.622C10.7182 799.366 7.56604 816.687 8.62583 833.506C11.6693 881.474 15.99 929.392 21.4792 977.159C28.8706 1041.52 36.9686 1105.85 46.6154 1169.96C49.6861 1190.32 58.5721 1209.96 64.8221 1229.92C66.8058 1229.54 68.7896 1229.17 70.7461 1228.79C69.4961 1206.94 68.9254 1185.05 66.833 1163.27C63.246 1125.89 58.5721 1088.61 54.6318 1051.27C50.1752 1008.91 44.8219 966.575 42.0773 924.113C39.4686 883.787 32.675 843.336 40.7729 802.885C41.7784 797.933 44.0338 793.181 45.7187 788.329C47.2676 788.078 48.7893 787.851 50.3383 787.625ZM1111.55 472.389C1102.66 478.75 1096.93 486.644 1100.95 497.228C1105.11 508.189 1116.14 510.2 1126.63 509.748C1139.16 509.22 1151.9 507.661 1164.02 504.695C1195.81 496.926 1225.87 485.864 1246.14 459.819C1255.32 448.003 1255.57 439.732 1245.24 429.499C1238.53 422.862 1230.03 417.809 1222.39 411.951C1214.45 405.842 1205.43 400.513 1198.99 393.247C1190.6 383.744 1193.97 377.911 1207.04 376.88C1216.03 376.177 1225.11 376.227 1234.13 375.674C1270 373.487 1305.43 374.995 1339.51 386.937C1395.24 406.446 1411.3 462.308 1372.42 503.915C1361.14 515.983 1346.66 525.486 1333.67 536.17C1349.29 532.022 1374.51 514.826 1391.69 495.393C1431.71 450.014 1425 384.925 1352.69 363.078C1316.28 352.092 1278.97 352.595 1241.36 355.134C1218.64 356.668 1198.1 360.539 1182.77 378.615C1167.14 397.043 1167.8 409.739 1187.47 424.421C1200.43 434.1 1213.64 443.603 1225.62 454.288C1233.29 461.101 1232.85 469.347 1221.09 472.364C1198.67 478.096 1176.19 484.456 1153.26 487.498C1130.54 490.515 1126.63 486.116 1123.39 463.69C1118.42 467.336 1115.02 469.9 1111.55 472.389ZM245.612 994.606C244.389 994.305 242.922 994.33 241.998 993.676C203.139 966.173 158.166 993.676 144.062 1029.78C127.105 1073.25 128.546 1117.64 137.024 1162.24C140.53 1180.72 144.85 1199.1 149.66 1217.35C153.03 1230.22 162.187 1232.56 171.454 1222.45C177.025 1216.4 180.775 1208.12 182.894 1200.31C186.291 1187.74 188.954 1174.74 204.905 1171.65C222.813 1168.18 236.645 1177.08 247.433 1188.92C262.08 1205.01 258.873 1219.31 239.552 1230.9C208.356 1249.63 167.16 1248.37 137.948 1227.43C133.845 1224.49 129.524 1220.37 127.975 1215.97C106.997 1155.83 97.7029 1094.54 111.562 1031.89C117.975 1002.98 134.307 979.422 166.481 969.994C198.465 960.617 224.471 972.307 245.612 994.606ZM220.177 1184.69C216.753 1195.15 214.172 1203.05 211.101 1212.45C228.52 1205.79 231.183 1199.05 220.177 1184.69ZM108.274 50.1049C106.208 58.0493 104.225 66.0188 102.051 73.9381C96.6703 93.5476 96.6975 113.132 106.073 131.51C121.345 161.452 153.274 173.997 191.427 166.53C229.471 159.089 261.4 140.435 292.162 119.643C298.357 115.445 304.825 111.347 309.988 106.193C314.118 102.095 320.314 93.8744 318.874 92.0141C314.254 86.1312 306.999 81.3545 299.716 78.1365C294.825 75.9744 288.14 76.6281 282.325 76.9549C245.775 79.0919 239.389 57.1694 249.444 31.4758C254.009 19.8358 262.297 10.031 277.297 8.59803C293.167 7.08961 304.363 15.3357 312.434 26.2215C331.945 52.5938 337.026 81.5808 326.184 112.202C324.173 117.858 319.988 123.59 315.151 127.563C278.955 157.153 239.906 183.601 192.296 193.783C147.269 203.386 110.04 192.777 92.4583 148.857C84.4147 128.769 84.8767 107.752 91.0452 87.1619C94.904 74.2649 99.9041 61.6947 104.415 48.9736C105.692 49.3256 106.997 49.7278 108.274 50.1049ZM290.966 46.3087C276.89 32.8837 270.857 32.8083 262.678 46.3087C272.134 46.3087 280.504 46.3087 290.966 46.3087ZM590.698 394.982C586.622 383.241 583.333 371.224 578.361 359.81C562.898 324.362 525.181 306.236 488.468 320.616C469.419 328.083 450.615 341.835 438.413 357.296C418.141 383.04 402.897 412.228 386.483 440.436C383.521 445.514 382.924 457.38 385.206 458.411C393.087 461.906 403.087 464.017 411.592 462.71C420.016 461.428 427.489 455.218 435.533 451.422C451.131 444.056 462.136 446.922 470.887 460.9C479.256 474.275 480.995 488.429 474.99 503.086C469.8 515.756 458.196 521.363 443.576 518.698C401.293 510.955 373.739 476.21 370.206 439.732C368.902 426.307 376.646 411.348 382.978 398.2C400.614 361.696 422.054 327.329 458.169 303.219C500.534 274.961 550.833 286.626 574.611 329.717C585.915 350.131 590.508 371.953 590.698 394.982ZM435.315 484.783C436.022 486.141 436.756 487.499 437.462 488.856C448.115 490.339 457.68 489.837 460.751 478.096C459.99 476.713 459.229 475.305 458.468 473.923C450.778 477.543 443.06 481.163 435.315 484.783ZM1169.56 1013.24C1183.26 1013.24 1196.55 1010.55 1207.85 1013.81C1229.97 1020.17 1252.61 1027.44 1272.09 1038.65C1311.98 1061.63 1350.19 1087.58 1378.07 1123.33C1395.95 1146.25 1410.38 1171.49 1426.39 1195.65C1428.67 1199.1 1431.17 1202.42 1431.96 1207.17C1427.91 1203.12 1423.7 1199.22 1419.86 1195.03C1367.42 1137.63 1309.51 1085.82 1241.03 1044.74C1214.32 1028.72 1186.19 1017.56 1153.34 1020.38C1133.1 1022.11 1118.64 1010.75 1104.56 1000.04C1096.11 993.601 1097.14 984.676 1102.69 976.153C1114.26 958.379 1143.86 945.557 1165.73 950.007C1169.1 950.686 1173.2 955.513 1173.94 958.982C1177.74 977.109 1179.07 995.285 1169.56 1013.24ZM1142.52 975.6C1141.66 975.047 1140.79 974.494 1139.92 973.941C1136.87 979.045 1132.09 983.947 1131.38 989.327C1130.89 992.972 1136.08 997.296 1138.72 1001.32C1140 1000.79 1141.27 1000.26 1142.52 999.735C1142.52 991.69 1142.52 983.645 1142.52 975.6ZM258.167 1870.45C268.602 1854.41 280.042 1838.87 289.227 1822.26C297.352 1807.52 304.091 1791.91 309.281 1776.07C313.358 1763.65 306.646 1757.62 292.76 1760.06C283.14 1761.74 273.439 1764.68 264.661 1768.71C235.965 1781.83 207.759 1795.91 179.171 1809.23C146.155 1824.62 111.861 1835.25 74.007 1832.94C27.2402 1830.07 3.16381 1801.72 12.5933 1759.93C12.7563 1759.25 12.1585 1758.42 11.452 1756.21C8.89758 1762.3 6.61494 1767.2 4.76709 1772.23C-10.8853 1814.41 13.1096 1852.12 60.583 1860.39C94.0344 1866.23 125.258 1858.83 155.041 1845.89C190.911 1830.3 225.965 1813 261.808 1797.37C272.569 1792.66 284.879 1790.96 296.482 1787.86C297.406 1789.37 298.33 1790.88 299.254 1792.39C294.471 1799.2 289.634 1805.99 284.906 1812.83C272.515 1830.75 259.661 1848.5 258.547 1870.83C258.52 1870.83 258.194 1870.47 258.167 1870.45ZM1316.28 585.094C1336.14 563.724 1360.54 562.04 1387.07 569.909C1400.6 573.931 1421.93 602.089 1418.89 614.458C1417.53 619.938 1410.38 627.179 1404.73 628.21C1380.87 632.509 1357.96 627.656 1337.74 615.237C1329.7 610.31 1324.84 610.812 1317.83 616.343C1307.58 624.438 1296.98 632.861 1285 638.09C1276.87 641.635 1266.09 639.925 1256.49 640.579C1255.71 639.523 1254.92 638.492 1254.13 637.436C1263.21 625.218 1272.31 613.025 1283.4 598.091C1284.75 605.055 1285.38 608.097 1286.9 615.84C1294.48 608.022 1299.89 602.466 1307.15 594.999C1287.01 583.133 1268.99 572.498 1249.89 561.235C1275.81 561.336 1295.38 574.057 1316.28 585.094ZM1336.2 598.091C1350.38 606.388 1361.11 613.779 1372.91 619.285C1382.61 623.785 1389.67 619.109 1387.53 609.128C1385.52 599.7 1379.97 590.826 1375.3 582.001C1371.11 574.158 1365.08 573.579 1358.15 579.688C1351.96 585.144 1345.49 590.323 1336.2 598.091ZM1267.39 1754.78C1250.73 1749.55 1234.07 1744.34 1217.42 1739.12C1217.42 1738.19 1217.44 1737.23 1217.44 1736.3C1220.81 1735.14 1224.21 1734.01 1229.86 1732.08C1222.58 1727.98 1216.47 1724.53 1207.44 1719.46C1200.81 1741.5 1194.86 1761.24 1188.72 1781.7C1181.93 1762.09 1184.51 1743.84 1192.04 1725.97C1195.46 1717.82 1194.26 1712.62 1185.05 1707.99C1161.17 1695.97 1158.04 1674.4 1159.97 1652.63C1161.57 1634.73 1176.41 1623.52 1191.6 1614.34C1201.9 1608.11 1209.86 1613.64 1214.26 1622.72C1224.32 1643.51 1228.21 1665.15 1220.13 1687.25C1216.85 1696.25 1218.2 1701.48 1227.66 1706.36C1238.61 1712.01 1249.89 1718.4 1258.15 1726.87C1264.59 1733.48 1266.66 1743.77 1270.68 1752.42C1269.59 1753.22 1268.48 1754 1267.39 1754.78ZM1203.64 1692.78C1207.66 1678.13 1211.49 1665.86 1214.1 1653.39C1214.81 1650.02 1212.82 1643.73 1210.32 1642.8C1206.55 1641.37 1200.19 1642.12 1196.76 1644.34C1188.75 1649.54 1181.63 1655.98 1174.54 1662.31C1167.2 1668.85 1169.02 1674.71 1177.31 1679.18C1184.97 1683.33 1192.82 1687.23 1203.64 1692.78ZM493.903 895.201C496.05 904.428 497.843 911.995 499.718 920.015C489.066 922.554 479.718 924.791 469.691 927.205C473.278 936.985 476.403 945.457 479.419 953.703C481.946 953.703 483.359 953.954 484.61 953.653C493.224 951.591 502.735 950.762 509.854 946.513C512.056 945.205 506.892 934.546 506.811 928.135C506.757 925.42 510.507 921.297 513.523 920.191C520.371 917.702 527.844 916.696 535.317 915.012C532.817 905.986 530.724 898.469 528.55 890.651C538.659 887.307 552.056 886.528 555.507 880.695C559.094 874.636 553.061 863.7 551.268 855.027C518.74 859.125 518.74 859.125 522.164 887.181C512.816 889.846 503.333 892.536 493.903 895.201ZM787.928 612.673C785.184 618.003 783.037 622.1 780.945 626.224C778.852 630.321 776.814 634.419 774.776 638.442C800.7 653.174 801.787 652.948 814.314 629.492C815.646 627.003 816.543 624.338 817.847 621.296C809.532 617.625 801.923 614.282 793.472 610.561C797.928 601.51 801.95 593.365 806.515 584.138C796.461 580.267 787.548 576.823 777.656 573.001C772.629 582.303 768.037 590.801 762.683 600.781C771.841 605.105 779.64 608.776 787.928 612.673ZM508.686 390.783C515.208 381.758 520.887 373.864 527.137 365.215C519.936 360.916 513.849 356.592 507.055 353.6C504.42 352.444 498.849 353.098 497.028 354.958C490.805 361.293 485.669 368.534 480.153 375.372C501.349 390.859 501.349 390.833 486.485 411.147C485.832 412.052 485.86 413.41 485.398 415.27C493.659 420.172 501.865 425.024 510.778 430.304C517.599 421.706 523.822 413.837 530.67 405.189C522.844 400.01 515.778 395.409 508.686 390.783ZM201.889 18.1765C196.074 25.3667 191.046 31.6267 185.421 38.5906C180.775 35.3726 176.861 32.6574 172.948 29.9423C168.764 27.0511 164.606 24.1348 160.557 21.3442C138.274 43.0405 140.095 50.7083 169.796 62.826C174.524 56.742 179.361 50.5072 184.715 43.5935C194.09 49.7278 202.351 55.133 211.481 61.1164C217.867 52.6692 223.438 45.3031 229.96 36.6799C219.552 29.7914 210.938 24.1097 201.889 18.1765ZM365.423 1406.63C371.891 1374.83 371.891 1374.83 336.727 1373.85C335.749 1378.88 334.309 1384.08 333.793 1389.34C333.14 1395.97 329.336 1397.86 322.841 1397.03C315.858 1396.15 305.803 1392.5 302.569 1395.37C298.059 1399.34 298.602 1408.27 297.08 1415.08C296.645 1417.02 296.645 1419 296.265 1422.5C307.379 1424.06 318.276 1427.58 328.14 1425.89C331.619 1425.29 332.597 1412.04 334.744 1404.55C334.852 1404.19 335.314 1403.92 336.809 1402.38C345.776 1403.72 355.613 1405.18 365.423 1406.63ZM14.4411 1659.29C2.15837 1694.09 1.75075 1717.14 36.6696 1727.05C36.6696 1714.28 36.6696 1702.01 36.6696 1689.74C37.6479 1689.54 38.6534 1689.36 39.6316 1689.16C47.5665 1701.96 55.5014 1714.78 64.333 1729.06C65.0667 1699.07 45.0121 1671.84 14.4411 1659.29ZM1065.13 1594.18C1048.91 1608.01 1048.94 1607.98 1034.97 1592.37C1033.07 1590.23 1030.54 1588.57 1027.77 1586.26C1020.32 1592.45 1013.37 1598.23 1005.62 1604.64C1013.09 1613.31 1019.72 1621.06 1026.84 1629.35C1034.7 1623.52 1041.57 1618.42 1049.4 1612.61C1056.36 1619.95 1062.74 1626.69 1069.97 1634.31C1077.52 1627.67 1084.56 1621.48 1091.9 1615.02C1084.62 1606.22 1078.15 1598.38 1071.19 1590.01C1068.58 1591.77 1066.71 1592.82 1065.13 1594.18ZM490.207 60.0354C484.229 68.6083 479.12 75.9242 473.441 84.0948C482.082 90.5056 490.343 96.6399 499.066 103.126C504.882 95.7097 509.8 89.4246 515.072 82.7121C523.958 88.7709 531.811 94.151 539.529 99.4305C562.572 79.2427 559.828 68.4826 529.039 57.9236C524.8 63.5048 520.425 69.2368 514.882 76.5527C506.295 70.7704 498.496 65.5663 490.207 60.0354ZM504.148 544.668C512.3 545.447 519.393 546.604 526.485 546.579C529.773 546.553 534.828 545.045 536.078 542.782C543.741 528.679 537.844 518.999 521.186 517.139C519.854 516.988 518.469 516.837 517.191 516.46C508.414 513.846 505.072 516.511 504.61 525.259C503.795 540.268 502.001 541.048 486.648 538.735C481.43 537.955 476.104 537.93 469.256 537.427C468.359 547.031 467.598 555.529 466.702 565.157C478.387 566.49 488.523 567.646 500.86 569.029C502.001 560.28 503.006 553.04 504.148 544.668ZM548.007 1331.82C538.279 1327.47 529.501 1323.54 519.773 1319.19C515.588 1327.77 511.621 1335.89 506.892 1345.54C517.327 1349.92 526.648 1356.6 535.86 1356.5C540.67 1356.45 545.317 1344.44 550.48 1337.2C559.366 1340.59 568.306 1344.01 578.85 1348.03C582.627 1338.93 586.051 1330.78 589.747 1321.94C578.958 1317.01 569.828 1312.86 559.366 1308.08C555.099 1316.93 551.73 1324 548.007 1331.82ZM1295.65 1482.71C1297.04 1492.92 1292.55 1496.36 1281.87 1495.15C1275.9 1494.47 1269.78 1495.03 1263.94 1495.03C1261.52 1524.52 1262.58 1525.7 1288.64 1524.49C1289.1 1524.47 1289.73 1524.69 1289.97 1524.47C1292.55 1522.33 1296.87 1520.42 1297.34 1517.91C1300.9 1498.72 1300.68 1498.7 1322.42 1498.14C1324.59 1498.09 1326.77 1497.72 1328.78 1497.52C1332.45 1470.82 1332.45 1470.79 1305.49 1469.03C1302.88 1468.86 1300.24 1469.01 1296.49 1469.01C1296.14 1473.76 1295.05 1478.33 1295.65 1482.71ZM871.054 1524.79C861.978 1530.98 853.853 1536.51 844.858 1542.64C851.679 1550.39 857.494 1557 863.771 1564.14C873.69 1557.73 882.658 1551.92 891.87 1545.94C885.565 1538.42 880.674 1532.59 875.321 1526.23C884.261 1519.84 892.658 1513.88 900.973 1507.97C881.842 1482.66 877.413 1482.43 854.722 1504.93C859.967 1511.29 865.266 1517.78 871.054 1524.79ZM901.761 537.503C893.718 534.511 886.353 531.871 883.174 543.21C880.511 552.763 876.489 562.191 892.467 564.705C895.973 565.258 899.424 567.395 902.794 567.219C906.109 567.043 910.402 565.66 912.305 563.398C916.163 558.797 917.576 550.299 922.06 548.841C927.278 547.157 934.723 551.255 941.191 552.864C944.071 553.593 946.952 554.347 949.642 555.051C964.751 528.301 959.724 520.759 927.577 520.583C924.424 527.698 921.245 534.863 917.848 542.581C911.734 540.696 906.652 539.338 901.761 537.503ZM825.238 15.7631C780.211 6.7125 769.151 13.1987 757.52 40.7024C769.966 40.7024 781.787 40.7024 793.608 40.7024C793.716 41.4566 793.825 42.236 793.934 42.9902C781.705 49.6524 769.477 56.3146 757.276 62.9517C791.841 61.2421 821.298 39.5962 825.238 15.7631ZM1088.18 1094.46C1098.64 1088.93 1109.13 1083.38 1119.59 1077.82C1120.32 1078.73 1121.06 1079.63 1121.82 1080.54C1114.37 1091.82 1106.93 1103.14 1099.48 1114.43C1128.1 1100.22 1142.01 1072.74 1137.25 1044.69C1100.32 1050.74 1082.47 1068.87 1088.18 1094.46ZM715.726 590.499C695.971 617.047 699.531 639.648 725.971 654.733C728.145 643.922 730.319 633.112 732.493 622.302C733.879 622.327 735.237 622.327 736.623 622.352C741.161 634.771 745.7 647.191 750.265 659.61C754.912 627.33 742.819 604.376 715.726 590.499ZM415.478 92.6426C416.348 79.117 417.326 65.6166 418.033 52.091C419.147 30.9982 425.886 26.9003 445.153 36.1017C450.397 27.5791 448.468 21.0928 439.12 16.4167C428.44 11.0618 424.772 19.1822 422.218 25.241C418.848 33.2105 417.326 41.9343 415.967 50.482C415.044 56.2895 415.804 62.3232 415.804 68.2563C414.554 68.3569 413.332 68.4826 412.082 68.5832C410.206 65.0132 408.875 61.0662 406.375 57.9236C398.984 48.6468 391.647 39.194 383.059 30.8976C380.831 28.7355 374.146 30.5456 369.5 30.5205C369.88 36.1771 369.364 42.06 371.021 47.3897C371.728 49.7027 376.701 52.0407 379.962 52.3676C396.266 54.0268 398.793 66.8233 404.092 77.2315C406.701 82.3601 408.331 87.9413 410.424 93.2962C412.109 93.0699 413.793 92.8437 415.478 92.6426ZM1073.5 494.337C1076.17 464.721 1087.77 438.701 1112.82 418.865C1118.39 414.465 1123.94 410.041 1131.03 404.409C1087.28 417.709 1051.84 468.819 1054.62 514.323C1064.75 509.647 1072.5 505.675 1073.5 494.337ZM578.361 1775.82C574.991 1772.18 572.736 1769.74 570.725 1767.57C554.529 1775.72 539.338 1784.72 523.007 1791.23C507.11 1797.57 490.017 1801.34 473.441 1806.24C473.033 1805.11 472.626 1803.95 472.218 1802.82C488.305 1796.99 504.583 1791.58 520.425 1785.22C535.996 1778.96 551.105 1771.77 567.246 1764.63C564.828 1760.03 563.714 1757.44 562.192 1755.08C552.436 1740.15 558.197 1726.17 576.105 1720.99C584.774 1718.48 589.203 1721.12 589.529 1729.46C589.638 1731.95 589.638 1734.57 588.904 1736.9C585.562 1747.41 575.779 1756.74 582.491 1769.13C582.98 1770.06 580.453 1772.48 578.361 1775.82ZM572.627 1752.06C575.1 1751.64 577.573 1751.23 580.018 1750.81C579.475 1744.24 579.23 1737.63 577.844 1731.22C577.736 1730.67 570.045 1731.52 565.86 1731.75C568.116 1738.51 570.371 1745.3 572.627 1752.06ZM253.574 524.757C243.275 548.891 231.645 572.649 223.411 597.362C220.884 604.93 227.025 615.363 230.666 623.961C231.454 625.796 240.639 627.179 242.677 625.469C254.471 615.489 261.754 602.843 264.607 588.161C262.107 589.644 260.721 591.781 258.9 593.541C254.933 597.413 250.721 601.083 246.618 604.829C243.194 598.896 236.917 592.938 236.998 587.055C237.134 577.828 240.938 568.451 244.417 559.551C248.737 548.464 254.308 537.805 259.362 526.969C257.406 526.215 255.504 525.486 253.574 524.757ZM284.716 984.827C287.379 970.346 287.08 970.497 275.558 961.471C243.982 936.708 225.666 905.961 227.433 866.466C215.721 911.241 244.661 970.371 284.716 984.827ZM325.749 1799.45C336.021 1806.57 345.179 1812.93 355.152 1819.84C361.347 1811.22 366.945 1803.45 372.896 1795.13C363.114 1787.81 354.472 1781.33 343.711 1773.28C337.434 1782.41 331.836 1790.58 325.749 1799.45ZM711.705 993.676C721.324 1000.59 730.047 1006.88 739.558 1013.69C746.27 1005.39 752.303 997.925 758.906 989.754C749.205 982.765 740.754 976.681 731.053 969.717C724.531 977.762 718.444 985.305 711.705 993.676ZM1044.81 1466.52C1038.42 1475.54 1032.88 1483.39 1026.76 1492.01C1037.01 1498.67 1046.03 1504.53 1055.92 1510.97C1061.84 1502.34 1067.09 1494.7 1073.23 1485.75C1063.42 1479.11 1054.53 1473.08 1044.81 1466.52ZM180.53 357.673C179.715 360.665 196.536 372.531 200.449 370.847C209.932 366.724 216.536 357.02 225.232 348.673C215.612 341.86 208.166 336.58 198.057 329.415C191.155 339.673 183.112 348.044 180.53 357.673ZM799.015 1799.4C789.097 1793.07 780.292 1787.46 771.597 1781.93C750.102 1803.4 750.183 1804.51 774.45 1820.12C776.651 1821.53 778.934 1822.81 782.656 1825C788.499 1815.89 793.608 1807.87 799.015 1799.4ZM215.639 695.712C218.465 705.843 220.829 714.391 223.221 723.064C227.433 722.361 229.607 721.833 231.835 721.631C261.509 718.841 261.509 718.866 250.531 691.061C239.009 692.594 228.112 694.052 215.639 695.712ZM928.12 668.258C927.577 671.325 944.995 681.884 948.854 679.923C957.957 675.348 963.854 665.317 971.735 656.719C961.191 650.258 953.093 645.28 942.849 638.995C937.169 649.378 929.886 658.378 928.12 668.258ZM1037.14 1776.78C1036.14 1776.05 1034.75 1775.75 1032.06 1774.66C1026.74 1782.41 1021.35 1790.23 1015.7 1798.42C1025.57 1805.31 1034.13 1811.27 1043.45 1817.78C1065.19 1790.7 1065.16 1796.86 1037.14 1776.78ZM504.392 1104.82C501.322 1102.74 498.006 1100.9 493.93 1098.39C488.251 1106.46 483.169 1113.65 477.408 1121.82C486.457 1128.2 494.854 1134.16 503.74 1140.45C525.914 1121.09 525.887 1119.48 504.392 1104.82ZM224.117 210.501C220.041 215.504 216.726 219.401 213.655 223.448C203.383 236.898 203.791 236.722 218.166 246.175C227.351 252.209 233.194 251.002 238.465 242.153C241.618 236.848 245.639 231.996 249.987 225.937C240.857 220.507 232.732 215.655 224.117 210.501ZM181.155 1152.46C186.59 1156.16 203.057 1154.15 206.998 1149.32C211.373 1144.02 207.052 1132.58 206.454 1123.02C193.22 1123.6 182.677 1124.05 168.302 1124.66C173.139 1136.12 174.334 1147.84 181.155 1152.46ZM1414.24 1870.83C1405.79 1865.09 1399 1860.37 1392.07 1855.82C1390.38 1854.71 1388.34 1854.11 1386.6 1853.33C1366.63 1879.3 1364.21 1875.55 1398.51 1894.71C1404.02 1886.36 1409.02 1878.75 1414.24 1870.83ZM1043.28 205.925C1072.39 229.683 1071.44 230.488 1086.68 199.64C1078.37 194.386 1069.86 189.031 1059.62 182.545C1053.75 190.942 1048.47 198.509 1043.28 205.925ZM484.066 35.9257C493.659 42.3868 502.164 48.0685 510.67 53.8006C530.398 28.1573 535.262 32.8837 501.05 11.6903C495.343 19.8358 490.017 27.4282 484.066 35.9257ZM424.609 956.946C423.902 926.853 420.94 924.716 389.038 931.831C391.348 960.843 397.353 964.941 424.609 956.946ZM1275.49 1476.85C1280.9 1449.9 1276.3 1445.78 1242.25 1446.71C1242.25 1455.66 1242.25 1464.66 1242.25 1474.89C1254.43 1475.62 1265.03 1476.22 1275.49 1476.85ZM526.811 1271.15C524.855 1270.3 522.762 1269.72 519.854 1268.69C515.887 1277.29 512.137 1285.43 508.007 1294.38C518.985 1299.21 528.577 1303.41 538.17 1307.61C554.311 1276.88 556.105 1284.05 526.811 1271.15ZM162.704 308.448C182.16 300.403 202.758 298.669 223.52 301.887C234.362 303.571 244.797 307.417 258.248 311.063C222.732 287.582 180.503 285.269 142.214 303.068C147.323 310.711 153.791 312.119 162.704 308.448ZM780.374 370.947C804.613 389.099 806.461 388.697 823.228 360.967C795.917 339.396 796.108 342.941 780.374 370.947ZM724.069 781.315C726.46 812.087 728.634 842.884 731.487 873.631C731.841 877.553 735.754 881.198 738.036 884.969C739.64 884.441 741.27 883.938 742.873 883.41C739.83 853.242 737.004 823.048 733.498 792.93C732.955 788.304 729.313 783.98 727.112 779.53C726.08 780.133 725.074 780.712 724.069 781.315ZM406.375 1632.97C403.277 1636.84 400.369 1640.84 397.435 1644.74C422.788 1662.81 429.772 1661.26 441.647 1635.06C434.038 1630.36 426.294 1625.56 417.272 1619.98C412.924 1625.13 409.554 1629 406.375 1632.97ZM357.652 535.894C367.244 542.43 375.695 548.213 384.962 554.523C390.886 546.126 395.994 538.886 401.402 531.218C392.978 524.732 385.07 518.673 375.451 511.256C369.146 520.005 363.739 527.472 357.652 535.894ZM1208.37 580.543C1194.02 607.142 1190.87 604.2 1227.55 615.514C1241.49 587.18 1243.45 589.619 1208.37 580.543ZM1383.51 843.915C1391.74 854.096 1399.81 865.284 1403.91 877.226C1408.94 891.857 1409.78 907.721 1412.2 921.8C1424.43 897.439 1409.32 841.954 1379.32 821.54C1374.89 830.766 1377.77 836.8 1383.51 843.915ZM97.866 944.627C103.002 947.594 108.165 950.56 113.844 953.854C71.8059 969.541 71.8059 969.541 68.3276 978.693C76.9147 986.737 85.23 988.12 92.3224 977.26C98.1649 968.284 106.643 964.539 117.649 964.061C124.415 963.784 131.127 962.402 137.866 961.522C138.138 960.164 138.41 958.832 138.709 957.474C125.013 953.276 111.344 949.102 97.6486 944.904L97.866 944.627ZM870.076 1717.67C883.228 1715.94 897.386 1715.03 910.104 1717.8C926.625 1721.37 942.169 1728.88 955.729 1733.84C936.598 1709.07 886.707 1696.4 851.19 1709.73C855.347 1718.02 861.027 1718.85 870.076 1717.67ZM176.943 1030.78C176.481 1033.57 178.682 1038.6 181.155 1039.63C187.568 1042.37 194.742 1043.91 201.78 1044.96C203.845 1045.26 207.623 1042.93 208.601 1040.94C216.128 1025.73 212.677 1019.02 195.639 1014.52C192.215 1013.61 188.872 1012.56 183.275 1010.92C180.802 1018.21 178.003 1024.37 176.943 1030.78ZM187.65 112.881C184.932 115.973 179.878 117.305 175.883 119.442C174.307 115.747 170.774 111.548 171.644 108.431C172.785 104.433 176.861 100.26 180.883 98.1483C183.791 96.6399 188.682 98.4249 192.677 98.7517C190.421 97.4444 188.22 95.2069 185.883 95.0309C178.682 94.5532 170.53 93.0699 164.524 95.584C161.155 96.9919 158.383 106.897 160.421 110.543C163.655 116.375 170.367 122.384 176.997 124.395C191.182 128.719 200.041 122.258 207.623 104.383C203.112 102.774 198.601 101.165 194.09 99.5562C192.025 104.081 190.829 109.235 187.65 112.881ZM646.486 239.915C622.492 251.229 598.361 262.315 574.611 274.056C571.214 275.74 569.638 280.542 567.219 283.911C580.942 279.813 592.546 274.257 604.312 269.003C616.486 263.572 628.986 258.746 640.943 252.938C644.802 251.053 647.383 246.929 650.563 243.812C649.231 242.53 647.872 241.223 646.486 239.915ZM1309.78 192.299C1305.05 194.763 1298.15 196.121 1295.92 199.841C1281.68 223.8 1260.16 239.01 1232.66 247.809C1268.83 242.806 1296.22 226.616 1312.25 195.97C1311.44 194.738 1310.6 193.531 1309.78 192.299ZM124.768 497.027C131.508 525.486 126.1 554.9 137.35 582.177C145.285 555.755 136.725 503.94 124.768 497.027ZM1254.54 1168.96C1259.62 1164.61 1267.69 1160.99 1269.13 1155.78C1272.17 1144.8 1272.36 1133 1272.36 1121.54C1272.36 1117.24 1268.99 1112.64 1266.06 1108.92C1265.46 1108.17 1257.88 1110.03 1257.12 1111.94C1255.62 1115.66 1255.05 1121.06 1256.96 1124.33C1264.18 1136.7 1260.87 1147.99 1255.05 1159.45C1253.8 1161.92 1253.18 1164.68 1252.25 1167.3C1253.02 1167.85 1253.78 1168.4 1254.54 1168.96ZM1103.01 676.253C1098.8 685.53 1093.86 692.645 1081.27 685.781C1084.15 694.731 1089.26 701.343 1100.57 697.421C1109.97 694.153 1112.66 681.683 1107.28 673.035C1098.88 659.585 1086.57 660.641 1071.52 664.714C1073.83 670.244 1076.03 675.474 1078.2 680.703C1083.83 670.722 1090.16 669.465 1103.01 676.253ZM14.0607 1204.86C35.637 1212.88 40.311 1219.76 35.8272 1233.67C32.7294 1243.3 24.9575 1247.19 15.4466 1246.19C4.38665 1245.03 6.56059 1236.01 7.56604 1229.42C8.78888 1221.32 11.6965 1213.48 14.0607 1204.86ZM31.1261 1233.04C31.6152 1230.52 32.1044 1228.01 32.5663 1225.5C26.0173 1223.76 19.4412 1222 12.8922 1220.27C12.4846 1223.71 11.2889 1230.07 11.8324 1230.2C18.1096 1231.68 24.6315 1232.23 31.1261 1233.04ZM869.234 895.729C891.87 906.288 893.636 908.551 891.136 924.163C889.641 933.49 883.092 937.714 873.228 937.663C862.576 937.588 860.212 930.699 861.516 923.107C863.011 914.232 866.353 905.609 869.234 895.729ZM888.391 922.956C888.337 921.221 888.283 919.462 888.228 917.727C881.815 914.635 875.375 911.517 868.962 908.425C867.712 909.33 866.489 910.21 865.239 911.115C867.114 915.967 867.657 923.459 871.217 924.967C875.674 926.853 882.549 923.861 888.391 922.956ZM1401.14 1952.51C1405 1954.29 1409.54 1955.4 1413.86 1955.7C1422.23 1956.28 1426.41 1951.78 1422.75 1944.89C1418.26 1936.54 1411.74 1929.15 1406.09 1921.36C1405.05 1922.04 1404.02 1922.72 1402.99 1923.37C1406.03 1927.69 1409.1 1932.02 1413.29 1937.95C1390 1945.62 1381.93 1929.38 1370.14 1919.25C1378.23 1932.12 1385.79 1945.42 1401.14 1952.51ZM690.916 270.386C680.699 261.913 670.59 267.469 662.275 276.268C669.992 274.433 677.71 272.623 686.786 270.461C684.394 287.783 667.9 283.232 659.367 289.92C666.432 290.347 673.199 288.964 679.856 289.341C682.927 289.517 685.78 293.138 688.742 295.199C685.835 297.236 683.226 300.152 679.965 301.082C675.563 302.339 670.671 302.037 665.997 302.414C666.133 303.496 666.269 304.577 666.405 305.658C671.623 305.658 677.003 306.387 682.057 305.456C687.411 304.476 692.438 301.937 697.601 300.076C695.047 295.727 692.492 291.403 691.433 289.543C691.433 281.824 694.123 273.05 690.916 270.386ZM1366.98 1463.02C1364.65 1468.25 1359.35 1474.41 1360.82 1478.46C1362.09 1482.03 1371.01 1485.35 1376.41 1485.2C1394.57 1484.64 1409.95 1477.58 1420.79 1466.04C1407.58 1468.45 1393.45 1471.62 1379.1 1473.36C1372.15 1474.19 1365.11 1472.05 1366.68 1462.8L1366.98 1463.02ZM1165.27 1799.1C1158.69 1825.55 1151.49 1851.97 1159.05 1879.3C1161.38 1852.6 1169.24 1826.23 1165.27 1799.1ZM667.764 1530.35C641.758 1537.19 615.29 1538.14 591.676 1548.48C619.747 1552 662.302 1541.31 667.764 1530.35ZM340.912 1021.43C342.271 1019.47 341.102 1016.03 341.102 1011.45C319.472 1031.56 300.531 1063.04 302.95 1074.75C315.966 1056.6 328.657 1039.16 340.912 1021.43ZM1260.84 693.399C1246.44 714.064 1238.67 741.794 1244.13 752.831C1257.31 731.813 1266.17 700.287 1260.84 693.399ZM79.931 1796.03C70.882 1793.77 63.4362 1786.4 54.6046 1782.76C52.1046 1781.73 47.1589 1785.78 43.3273 1787.51C46.3708 1790.48 50.0122 1796.36 52.3492 1795.93C69.007 1792.89 78.9527 1802.62 92.1051 1813.96C90.1485 1803.8 89.6865 1798.45 79.931 1796.03ZM476.756 1944.89C473.794 1943.23 470.425 1939.23 470.56 1936.37C471.022 1927.42 473.033 1918.52 474.446 1909.62C469.147 1919.2 463.658 1929.1 462.408 1939.46C461.593 1946.05 467.028 1953.29 469.637 1960.25C474.501 1955.4 479.474 1950.65 484.175 1945.67C485.235 1944.54 485.452 1942.73 486.349 1940.52C482.381 1942.43 478.224 1945.72 476.756 1944.89ZM1366.71 1462.8C1380.65 1454.73 1394.73 1446.76 1397.39 1429.61C1377.45 1424.63 1371.39 1426.17 1365.14 1437.28C1372.72 1437.71 1380.35 1438.16 1388.04 1438.59C1380.27 1447.61 1373.61 1455.33 1366.98 1463.05C1366.98 1463.02 1366.71 1462.8 1366.71 1462.8ZM618.66 1252.7C598.796 1256.92 598.796 1256.92 589.23 1249.81C595.589 1248.75 600.263 1248 605.426 1247.14C605.861 1240.71 604.72 1236.36 595.861 1241.13C584.991 1246.97 583.361 1254.94 590.535 1264.16C592.002 1266.02 591.051 1269.49 591.241 1272.76C600.698 1265.82 609.693 1259.26 618.66 1252.7ZM584.448 1284.55C582.736 1295.94 590.507 1297.52 599.285 1296.64C616.024 1294.98 630.155 1288 644.503 1274.27C607.872 1290.03 603.388 1290.76 584.448 1284.55ZM329.091 1267C327.515 1274.85 324.581 1285.41 335.776 1288.17C339.255 1289.03 345.939 1279.07 351.021 1273.97C351.782 1273.21 351.755 1271.78 352.651 1268.81C348.983 1272.43 346.592 1274.8 344.2 1277.16C342.651 1277.11 341.102 1277.03 339.554 1276.98C338.521 1268.01 337.488 1259.06 336.428 1249.88C334.227 1254.89 330.369 1260.72 329.091 1267ZM1316.96 1784.67C1314.08 1787.79 1311.2 1790.91 1307.39 1795.03C1311.82 1795.38 1318.91 1797.11 1319.62 1795.81C1321.93 1791.58 1321.93 1786.28 1322.8 1781.38C1326.58 1778.06 1331.82 1772.78 1330.57 1769.96C1326.44 1760.64 1317.64 1757.57 1303.89 1760.94C1312.96 1763.45 1319.32 1765.24 1327.31 1767.45C1316.96 1780.55 1306.66 1770.34 1295.92 1770.11C1304.02 1775.7 1310.49 1780.2 1316.96 1784.67ZM946.68 1552.45C945.946 1551.92 945.185 1551.42 944.452 1550.89C942.142 1553.28 939.832 1555.67 937.359 1558.26C923.147 1548.88 933.31 1537.46 933.555 1525.95C920.375 1545.38 919.424 1558.56 931.598 1572.94C937.006 1565.62 941.843 1559.03 946.68 1552.45ZM113.736 1450.15C109.795 1446.81 106.1 1441.28 101.806 1440.82C98.6812 1440.5 93.4638 1446.36 91.4257 1450.43C86.2354 1460.89 83.8984 1471.85 90.0942 1481.45C92.4311 1472.98 94.1159 1463.5 97.8116 1454.75C100.448 1448.52 105.855 1443.41 114.116 1449.85C114.089 1449.87 113.736 1450.15 113.736 1450.15ZM97.6214 944.904C94.7953 943.144 92.0507 941.284 89.1431 939.624C79.1701 933.968 79.1429 931.227 89.0615 924.791C90.8007 923.66 92.4311 922.403 94.5507 920.895C85.6648 914.333 76.9962 914.987 71.8059 922.479C66.3167 930.423 74.3059 935.376 80.9093 938.795C86.0995 941.51 92.1866 942.767 97.866 944.652C97.866 944.627 97.6214 944.904 97.6214 944.904ZM776.216 1242.67C773.01 1243.67 769.803 1244.7 766.596 1245.71C764.586 1239.32 762.547 1232.94 760.591 1226.75C759.558 1228.64 756.624 1231.5 756.705 1234.3C756.95 1242.52 758.39 1250.69 759.368 1258.88C765.836 1254.41 772.33 1249.96 778.798 1245.48C777.955 1244.58 777.086 1243.62 776.216 1242.67ZM558.116 665.543C535.561 665.794 546.458 649.981 542.192 642.188C534.991 664.16 536.322 671.728 550.29 680.326C552.953 675.323 555.48 670.521 558.116 665.543ZM640.454 435.03C642.682 430.656 644.802 426.483 646.785 422.611C624.883 420.851 635.562 404.988 631.513 396.214C623.986 416.15 625.943 426.005 640.454 435.03ZM1309.92 1150.6C1311.63 1145.47 1313.97 1140.45 1314.75 1135.19C1315.05 1133.21 1311 1128.63 1310.19 1128.86C1302.12 1131.22 1294.29 1134.34 1286.41 1137.23C1286.87 1138.11 1287.34 1138.96 1287.8 1139.84C1291.87 1138.61 1295.95 1137.35 1301.44 1135.69C1302.91 1140.62 1304.16 1144.8 1305.41 1148.97C1306.93 1149.52 1308.42 1150.07 1309.92 1150.6ZM581.785 29.0121C585.48 30.973 589.149 32.9088 589.312 33.0094C599.285 27.5288 606.649 23.4812 612.301 20.3889C596.268 15.7128 589.013 17.2212 581.785 29.0121ZM865.348 1063.06C865.456 1067.31 869.261 1071.46 871.407 1075.66C875.293 1073.15 879.206 1070.63 886.788 1065.75C866.897 1065.33 872.739 1054.52 870.701 1043.43C868.092 1052.28 865.212 1057.71 865.348 1063.06ZM114.089 1449.87C114.85 1458.88 115.584 1467.88 116.344 1476.85C121.806 1469.41 126.535 1462.95 131.752 1455.86C126.073 1454.05 119.904 1452.11 113.736 1450.18C113.736 1450.15 114.089 1449.87 114.089 1449.87ZM1274.13 909.255C1281.9 909.255 1289.67 909.255 1297.44 909.255C1296.28 905.383 1295.14 901.486 1294.65 899.877C1286.09 902.542 1280.19 904.377 1274.29 906.213C1274.24 907.218 1274.18 908.249 1274.13 909.255ZM1295.79 1359.9C1299.13 1368.42 1301.36 1374.03 1303.56 1379.63C1307.77 1376.64 1311.98 1373.65 1315.43 1371.16C1308.31 1367.09 1303.89 1364.55 1295.79 1359.9ZM684.693 1647.13C673.47 1642.85 671.758 1637.1 679.775 1628.3C683.552 1624.15 685.78 1618.82 688.634 1614.17C662.084 1597.3 662.084 1597.3 647.438 1621.33C646.595 1622.72 646.269 1624.37 645.834 1625.56C652.573 1631.24 663.959 1636.52 663.959 1641.8C663.959 1649.29 655.563 1656.78 650.834 1664.32C650.508 1664.83 650.943 1665.73 651.188 1667.64C659.122 1671.46 667.709 1675.61 677.248 1680.19C683.552 1670.91 689.204 1662.56 695.509 1653.31C690.78 1650.6 687.954 1648.38 684.693 1647.13ZM698.389 1635.79C708.58 1640.82 717.139 1645.02 726.379 1649.59C732.466 1639.89 737.819 1631.34 743.58 1622.16C734.314 1617.29 726.216 1612.99 716.351 1607.81C710.047 1617.61 704.422 1626.39 698.389 1635.79ZM987.822 792.93C983.882 798.159 980.159 802.282 977.414 806.908C972.55 815.078 967.332 815.003 960.403 808.995C955.892 805.098 950.566 802.031 944.669 797.908C938.582 806.305 933.202 813.721 926.952 822.369C936.816 829.258 945.81 835.543 954.832 841.853C961.245 833.456 966.572 826.492 972.169 819.176C981.626 825.537 989.914 831.118 999.181 837.353C1004.59 829.409 1009.59 822.068 1015.84 812.841C1006.3 806.053 997.523 799.818 987.822 792.93ZM956.952 747.325C950.566 756.174 945.267 763.541 939.506 771.51C949.262 778.323 957.658 784.206 966.979 790.717C973.012 782.044 978.066 774.778 984.153 766.055C974.751 759.568 966.3 753.761 956.952 747.325Z" fill="url(#paint0_linear_261_1182)"/>
<defs>
<linearGradient id="paint0_linear_261_1182" x1="715.978" y1="1968.97" x2="715.978" y2="-0.0251153" gradientUnits="userSpaceOnUse">
<stop offset="0.7239" stop-color="white"/>
<stop offset="1" stop-color="white" stop-opacity="0"/>
</linearGradient>
</defs>
</svg>
