<svg width="800" height="900" viewBox="0 0 800 900" fill="none" xmlns="http://www.w3.org/2000/svg">
  <rect width="800" height="900" rx="48" fill="#102F67"/>
  <circle cx="400" cy="320" r="150" fill="#F0C4A0"/>
  <path d="M250 290C250 192 317 130 398 130C486 130 550 191 550 288V345H250V290Z" fill="#3B2A20"/>
  <rect x="220" y="500" width="360" height="240" rx="80" fill="#FFFFFF"/>
  <path d="M295 515C295 480 323 452 358 452H442C477 452 505 480 505 515V556C505 619 454 670 391 670H409C346 670 295 619 295 556V515Z" fill="#E8B189"/>
  <path d="M215 858C230 740 308 680 400 680C492 680 570 740 585 858H215Z" fill="#18A0AE"/>
</svg>